<svg width="2168" height="3458" viewBox="0 0 2168 3458" fill="none" xmlns="http://www.w3.org/2000/svg">
<g opacity="0.25">
<path d="M1173.97 3457.32C1722.58 3457.32 2167.32 3401.8 2167.32 3333.31C2167.32 3264.82 1722.58 3209.3 1173.97 3209.3C625.355 3209.3 180.616 3264.82 180.616 3333.31C180.616 3401.8 625.355 3457.32 1173.97 3457.32Z" fill="#000072"/>
</g>
<path d="M814.434 2723.98C979.242 2621.6 1071 2346.58 1077.5 2326.55C1024.6 2136.73 1057.26 1886.73 1062.88 1847.65C908.175 1829.09 801.112 1728.21 782.753 1709.81C748.622 1729.12 679.306 1772.39 607.067 1841.17C513.825 1929.95 396.505 2080.64 367.129 2294.37C366.979 2295.42 353.488 2390.25 351.594 2433.09C386.694 2414.44 533.63 2343.5 700.997 2363.97C726.52 2282.94 766.645 2121.76 747.743 1954.45C747.429 1951.65 749.443 1949.12 752.244 1948.8C755.09 1948.49 757.567 1950.51 757.891 1953.3C777.224 2124.46 735.5 2289.16 709.752 2370.09C709.749 2370.13 709.764 2370.16 709.759 2370.2C709.672 2370.86 709.445 2371.47 709.141 2372.01C702.46 2392.88 696.922 2407.94 693.907 2415.82C716.607 2420.16 744.767 2442.64 754.842 2451.22C755.752 2451.63 756.504 2452.28 757.043 2453.12C757.235 2453.29 757.492 2453.51 757.651 2453.65C765.571 2455.61 803.739 2466.78 807.636 2499.86C812.65 2542.38 788.128 2616.9 700.987 2635.84C617.27 2654.04 543.495 2627.7 529.111 2622.04C423.937 2684.03 319.202 2718.15 306.283 2722.24C195.941 2841.69 260.34 3054.32 282.09 3115.27C288.644 3091.05 307.419 3046.47 360.798 3002.29C408.75 2962.61 503.936 2907.22 614.153 2843.09C680.467 2804.51 749.038 2764.6 814.434 2723.98Z" fill="white"/>
<path d="M683.206 2415.2C685.504 2409.33 690.944 2394.98 697.819 2373.89C677.212 2371.46 656.922 2370.39 637.133 2370.49L648.018 2426.77C655.038 2422.05 667.132 2416.01 683.206 2415.2Z" fill="#001364"/>
<path d="M654.572 2831.36C642.765 2838.24 630.985 2845.1 619.287 2851.91C579.661 2874.97 542.036 2896.87 507.841 2917.31C531.877 2928.43 597.891 2961.58 640.27 3008.06L654.572 2831.36Z" fill="#000072"/>
<path d="M528.333 2611.28C528.345 2611.28 528.355 2611.28 528.368 2611.27H528.383C529.136 2611.23 529.851 2611.38 530.519 2611.64C530.574 2611.67 530.634 2611.65 530.686 2611.67C531.473 2612.01 610.69 2645.03 698.819 2625.86C789.519 2606.15 800.803 2529.09 797.499 2501.06C794.661 2476.97 766.697 2466.88 757.287 2464.14C756.858 2468.9 756.335 2473.6 755.652 2478.32C754.565 2485.63 753.17 2492.88 751.431 2500.05C749.624 2507.2 747.454 2514.26 744.817 2521.12C742.056 2527.94 738.791 2534.53 734.809 2540.63C741.346 2527.57 744.563 2513.35 746.414 2499.11C747.281 2491.97 747.807 2484.8 748.026 2477.64C748.205 2471.28 748.138 2464.84 747.792 2458.61C733.924 2446.84 704.749 2425.22 686.737 2425.22C672.034 2425.22 660.832 2430.65 654.385 2434.83C655.237 2442.07 655.432 2449.03 655.227 2456.13C654.94 2464.36 653.961 2472.54 652.279 2480.54C650.697 2488.58 647.963 2496.35 644.656 2503.75C641.386 2511.21 636.726 2517.91 631.752 2524.17C636.051 2517.39 639.886 2510.38 642.286 2502.8C644.726 2495.28 646.547 2487.58 647.24 2479.74C648.027 2471.92 648.13 2464.06 647.572 2456.27C647.191 2451.15 646.528 2445.94 645.601 2440.92C645.586 2440.92 645.573 2440.93 645.559 2440.93C645.429 2440.96 645.3 2440.96 645.17 2440.97C645.058 2440.98 644.951 2441 644.839 2441C644.757 2441.01 644.669 2441.03 644.587 2441.03C644.49 2441.03 644.403 2440.98 644.305 2440.98C644.123 2440.97 643.944 2440.98 643.764 2440.95C643.659 2440.94 643.582 2440.86 643.48 2440.83C642.877 2440.7 642.321 2440.47 641.813 2440.13C641.713 2440.07 641.601 2440.03 641.506 2439.96C640.94 2439.53 640.482 2438.98 640.135 2438.34C640.108 2438.29 640.053 2438.26 640.025 2438.21C639.561 2437.34 627.58 2415.84 581.318 2427.7C534.069 2439.81 527.241 2499.08 527.176 2499.68C526.877 2502.48 524.295 2504.54 521.569 2504.22C518.768 2503.93 516.734 2501.42 517.028 2498.62C517.307 2495.89 524.599 2431.7 578.786 2417.81C608.264 2410.25 626.177 2415.08 636.571 2421.33L626.777 2370.67C534.714 2372.96 454.313 2398.95 404.001 2419.85C388.486 2486.03 394.569 2536.29 422.155 2569.21C460.084 2614.46 526.848 2611.34 528.333 2611.28Z" fill="white"/>
<path d="M926.441 3196.76C907.397 3201.81 889.469 3206.88 872.13 3211.77C804.342 3230.93 745.794 3247.47 670.385 3249.06C666.143 3249.15 661.872 3249.19 657.611 3249.19C581.739 3249.19 503.496 3235.74 480.664 3231.48C482.511 3251.9 488.277 3267.97 498.031 3279.09C514.673 3284.85 708.523 3347.64 924.104 3236.13C925.549 3235.38 927.274 3235.37 928.729 3236.1C930.189 3236.83 931.211 3238.21 931.48 3239.82L937.386 3275.28C1000.91 3278.26 1096.93 3279.06 1112.02 3269.3C1124.32 3261.34 1125.68 3228.53 1121.98 3185.72C1101.87 3183.53 1008.22 3175.03 926.441 3196.76Z" fill="#898786"/>
<path d="M993.646 3065.15C941.886 3079.26 872.787 3072.55 776.171 3044.04C702 3022.17 648.89 3056.21 644.806 3058.94C641.823 3061.71 621.481 3079.27 581.274 3083.73C545.478 3087.71 500.617 3101.35 490.175 3143.76C482.866 3173.46 479.541 3199.32 480.067 3220.99C499.595 3224.71 588.376 3240.62 670.165 3238.85C744.273 3237.29 802.238 3220.92 869.353 3201.95C886.732 3197.04 904.7 3191.97 923.819 3186.89C1004.68 3165.42 1096.57 3172.83 1121.02 3175.36C1117.79 3143.31 1112.14 3106.65 1106.29 3070.96C1093.99 3066.91 1042.45 3051.82 993.646 3065.15Z" fill="#606060"/>
<path d="M1186.68 2827.5C1132.14 2840.73 1119.61 2968.63 1116.76 3031.93C1133.31 3015.65 1170.02 2985.35 1217.78 2980.78C1249.14 2977.78 1279.71 2986.53 1308.85 3006.79C1271.52 2896.09 1198.86 2836.83 1186.68 2827.5Z" fill="#000072"/>
<path d="M1228.08 1736.21C1215.22 1736.21 1202.23 1736.08 1189.17 1735.88C1112.65 1761.76 1083.87 1818.5 1076.04 1837.92C1122.94 1836.27 1381.71 1822.45 1524.04 1717.5C1434.76 1729.4 1335.09 1736.21 1228.08 1736.21Z" fill="white"/>
<path d="M952.258 1721.68C898.744 1716.1 849.043 1708.46 803.164 1698.82C801.188 1699.81 797.405 1701.75 792.047 1704.66C814.371 1726.54 916.255 1818.85 1061.56 1837.19C1052.07 1818.29 1012.32 1761.29 975.21 1723.93C967.569 1723.19 959.941 1722.48 952.258 1721.68Z" fill="white"/>
<path d="M1163.12 1735.38C1107.23 1733.97 1049.62 1730.71 990.71 1725.4C1018.04 1754.98 1055.06 1803.3 1068.55 1829.11C1078.11 1807.31 1104 1762.85 1163.12 1735.38Z" fill="#FC8026"/>
<path d="M1605.47 3081.83C1593.15 3030.65 1573.67 2967.35 1543.54 2907.09C1512.11 2844.22 1440.79 2777.55 1365.28 2706.96C1280.14 2627.38 1183.65 2537.18 1120.94 2431.95C1105.11 2405.4 1092.52 2375.43 1082.52 2343.47C1060.9 2404.96 970.617 2638.97 819.817 2732.65C769.346 2764.01 717.036 2794.89 665.326 2825.09L649.452 3021.14C649.452 3021.14 649.452 3021.15 649.452 3021.16L647.483 3045.47C666.597 3035.18 715.017 3015.36 779.062 3034.25C873.774 3062.21 941.104 3068.9 990.96 3055.3C1038.99 3042.2 1087.95 3054.53 1105.73 3060.04C1105.98 3019.89 1111.22 2830.96 1186.95 2817.01C1188.31 2816.76 1189.69 2817.07 1190.82 2817.85C1191.96 2818.66 1304.36 2899.63 1334.06 3063.76C1349.11 3071.28 1445.47 3114.6 1605.47 3081.83ZM1225.84 2801.73C1188.23 2808.82 1149.49 2810.79 1111.27 2807.05C1092.18 2805.07 1073.16 2802.13 1054.53 2797.53C1035.92 2792.88 1017.56 2787.22 999.796 2780.06C964.29 2765.89 930.395 2747.08 901.421 2722.39C917.054 2733.17 933.518 2742.56 950.514 2750.78C967.42 2759.16 984.872 2766.34 1002.58 2772.63C1038.06 2785.06 1074.9 2793.52 1112.24 2796.89C1121.56 2797.95 1130.93 2798.34 1140.29 2798.83C1149.66 2798.91 1159.05 2799.24 1168.42 2798.78C1187.2 2798.55 1205.88 2796.37 1224.51 2793.87C1261.68 2788.12 1298.36 2778.52 1334.08 2765.56C1299.92 2782.17 1263.46 2794.55 1225.84 2801.73Z" fill="#898786"/>
<path d="M1498.47 3310.05C1541.04 3302.4 1576.76 3282.89 1614.58 3262.23C1671.74 3231 1730.92 3198.85 1819.01 3205.08C1817.34 3195.15 1814.77 3184.92 1811.06 3174.62C1804.14 3178.32 1796.92 3181.43 1789.24 3183.66C1753.52 3194.03 1719.04 3197 1691.25 3197C1655.29 3197 1630.52 3192.03 1628.74 3191.66C1626.55 3191.21 1624.91 3189.38 1624.69 3187.16C1624.61 3186.41 1620.59 3147.37 1607.81 3091.76C1563.33 3100.91 1523.73 3104.42 1489.4 3104.42C1436.42 3104.43 1395.85 3096.21 1368.46 3087.98C1367.24 3100.73 1362.03 3128.44 1339.86 3153.19C1338.95 3154.2 1337.97 3155.18 1337.04 3156.19C1367.28 3144.89 1419.27 3136.36 1479.62 3172.72C1482.03 3174.17 1482.81 3177.31 1481.36 3179.72C1480.4 3181.31 1478.71 3182.19 1476.98 3182.19C1476.08 3182.19 1475.18 3181.96 1474.35 3181.46C1387.32 3129.03 1319.69 3175.31 1315.35 3178.41C1293.44 3200.4 1271.94 3223.69 1267.36 3257.16C1266.02 3266.94 1265.24 3276.58 1264.84 3285.71C1286.34 3292.69 1401.13 3327.52 1498.47 3310.05Z" fill="#606060"/>
<path d="M1899.78 3080.97C1899.64 3081.17 1899.5 3081.37 1899.36 3081.57C1916.65 3081.84 1954.73 3081.03 1985.44 3070.54C2026.84 3056.4 2057.84 3019.34 2062.7 2979.18C2035.5 2979.62 2001.78 2984.48 1972.1 3001.43C1945.01 3016.91 1923.04 3048.03 1899.78 3080.97Z" fill="#000072"/>
<path d="M1363.3 2286.71C1366.52 2291 1369.99 2295.24 1373.51 2299.1C1383.75 2302.11 1449.1 2318.55 1495.62 2265.24C1496.71 2195.19 1484.31 2088.96 1412.1 2012.17C1404.72 2009.32 1352.27 1991.2 1265.18 2012.83C1173.56 2035.57 1118.42 2111.9 1105.95 2173.2C1100.18 2201.59 1103.91 2224.48 1116.74 2239.42C1127.98 2252.49 1146.34 2259.21 1169.93 2259.02C1168.87 2249.65 1168.41 2240.42 1168.4 2231.07C1168.41 2219.79 1169.23 2208.49 1171.12 2197.35C1173.12 2186.25 1176.17 2175.22 1181.39 2165.18C1186.43 2155.1 1194.14 2146.28 1203.69 2140.57C1194.59 2147.01 1187.83 2156.16 1183.7 2166.27C1179.4 2176.34 1177.28 2187.19 1176.18 2198.04C1175.18 2208.92 1175.22 2219.9 1176.05 2230.8C1176.86 2241.37 1178.32 2252.08 1180.51 2262.23C1184.07 2268.29 1215.91 2319.14 1284.3 2327.14C1345.23 2334.26 1361.42 2311.19 1364.91 2304.07C1361.99 2299.71 1359.35 2295.35 1356.86 2290.84C1353.89 2285.4 1351.16 2279.84 1348.8 2274.13C1344.14 2262.74 1340.71 2250.57 1341 2238.36C1342.44 2250.47 1347.39 2261.59 1353.38 2271.86C1356.4 2277.01 1359.76 2281.94 1363.3 2286.71Z" fill="white"/>
<path d="M1967.04 2992.57C2018.03 2963.43 2078.37 2967.69 2104.22 2971.37C2049.56 2900.47 1895.55 2775.75 1893.93 2774.44C1893.9 2774.41 1893.88 2774.37 1893.85 2774.35C1893.82 2774.32 1893.77 2774.31 1893.74 2774.28C1893.72 2774.26 1893.67 2774.22 1893.65 2774.2C1869.42 2750.8 1845.78 2726.96 1822.37 2702.84C1798.99 2678.7 1775.93 2654.26 1753.45 2629.28C1730.97 2604.32 1708.8 2579.05 1687.76 2552.86C1666.73 2526.68 1646.27 2499.95 1628.45 2471.49C1646.99 2499.49 1668.08 2525.64 1689.72 2551.23C1711.38 2576.83 1734.13 2601.48 1757.2 2625.82C1780.25 2650.15 1803.88 2673.96 1827.8 2697.44C1847.81 2717.05 1868.09 2736.4 1888.58 2755.47C1845.17 2561.83 1787.36 2384.18 1776.46 2351.27C1744.53 2365.22 1706.04 2370.11 1667.85 2370.12C1582.48 2370.12 1498.6 2345.77 1492.66 2344.01C1490.12 2343.26 1488.58 2340.69 1489.1 2338.1C1489.24 2337.44 1493.63 2314.87 1495.16 2280.5C1449.32 2324.16 1390.07 2313.7 1373.5 2309.63C1368.44 2318.91 1352.22 2338.68 1305.8 2338.68C1298.92 2338.68 1291.38 2338.24 1283.11 2337.28C1213.96 2329.19 1180.37 2281.53 1172.81 2269.27C1144.83 2270.08 1122.74 2262.05 1109 2246.07C1094.05 2228.66 1089.53 2202.76 1095.96 2171.17C1109.04 2106.83 1166.81 2026.74 1262.72 2002.92C1345.76 1982.3 1397.79 1996.31 1412.73 2001.52C1418.14 1993.55 1434.14 1978.52 1478.63 1976.63L1410.87 1877.73C1409.28 1875.41 1409.88 1872.23 1412.2 1870.64C1414.54 1869.05 1417.71 1869.65 1419.3 1871.96L1490.77 1976.28C1507.51 1975.12 1523.9 1975.18 1540.4 1975.95C1557.91 1976.75 1575.36 1978.47 1592.65 1981.13C1601.32 1982.27 1609.89 1984.08 1618.48 1985.64C1627 1987.6 1635.57 1989.26 1643.97 1991.67C1660.91 1995.9 1677.38 2001.74 1693.64 2007.88C1677.08 2002.53 1660.42 1997.53 1643.38 1994.16C1634.93 1992.17 1626.33 1990.94 1617.81 1989.4C1609.21 1988.28 1600.66 1986.9 1592.02 1986.19C1574.8 1984.4 1557.5 1983.55 1540.22 1983.6C1523.01 1983.63 1505.56 1984.44 1488.81 1986.6L1488.6 1986.62C1488.53 1986.63 1488.46 1986.6 1488.38 1986.61C1488.31 1986.61 1488.25 1986.64 1488.18 1986.64C1440.32 1986.64 1425.38 2001.19 1421.3 2007.05C1494.37 2086.25 1506.88 2194.46 1505.76 2265.77C1505.99 2266.71 1506.03 2267.67 1505.72 2268.59C1505.04 2301.16 1501.56 2325.64 1499.94 2335.45C1533.24 2344.5 1745.97 2397.97 1818.08 2308.26C1900.54 2205.7 1852.91 1998.6 1817.19 1884.27C1781.28 1769.34 1640.65 1709.27 1621.81 1701.68C1597 1706.47 1571.1 1710.82 1544.18 1714.71C1399.53 1834.27 1111.91 1847.05 1073.1 1848.23C1066.94 1890.64 1020.05 2242.74 1129.71 2426.73C1191.68 2530.71 1287.61 2620.38 1372.25 2699.51C1451.76 2773.83 1520.42 2838.02 1552.67 2902.52C1584.12 2965.42 1604.11 3031.57 1616.51 3084.17C1616.57 3084.36 1616.7 3084.51 1616.74 3084.7C1616.77 3084.87 1616.73 3085.02 1616.74 3085.18C1628.15 3133.81 1633.04 3170.7 1634.42 3182.31C1650.39 3184.98 1716.86 3194.04 1786.4 3173.86C1830.81 3160.96 1861.64 3117.31 1891.45 3075.09C1915.37 3041.19 1937.98 3009.18 1967.04 2992.57Z" fill="white"/>
<path d="M1619.47 3271.19C1580.9 3292.26 1544.48 3312.16 1500.28 3320.1C1480.57 3323.64 1460.18 3325.09 1440 3325.09C1361.99 3325.09 1286.85 3303.37 1264.55 3296.33C1264.23 3319.25 1266.09 3337.67 1266.94 3344.75C1287.48 3351 1406.59 3385.3 1497.21 3369.97C1563.46 3358.78 1613.53 3340.93 1650.09 3327.89C1669.2 3321.08 1684.3 3315.69 1695.94 3313.36C1725.04 3307.54 1799.17 3294.38 1815.38 3291.51C1817.83 3282.22 1824.61 3251.82 1820.48 3215.4C1734.05 3208.7 1675.8 3240.41 1619.47 3271.19Z" fill="#898786"/>
<path d="M1988.74 3080.2C1959.46 3090.2 1924.91 3091.86 1905.21 3091.86C1899.45 3091.86 1894.97 3091.72 1892.25 3091.6C1884.63 3102.31 1876.86 3112.94 1868.74 3123.03C1899.27 3124.46 1993.05 3125.57 2039.52 3089.13C2086.34 3052.42 2104.67 2999.11 2109.43 2982.57C2102.59 2981.4 2089.46 2979.59 2072.96 2979.21C2068.13 3024.24 2034.91 3064.43 1988.74 3080.2Z" fill="white"/>
<g opacity="0.25">
<path d="M473.698 2540.63C429.247 2500.13 435.355 2407.75 435.355 2407.75C423.927 2411.84 413.435 2415.93 404.003 2419.85C388.488 2486.03 394.571 2536.29 422.157 2569.21C460.083 2614.46 526.847 2611.35 528.333 2611.28C528.345 2611.28 528.355 2611.28 528.368 2611.27H528.383C529.136 2611.23 529.851 2611.38 530.519 2611.64C530.574 2611.67 530.634 2611.65 530.686 2611.67C531.394 2611.97 595.337 2638.6 672.179 2630.17C701.388 2619.03 741.884 2594.99 784.635 2564.21C789.975 2553.83 793.41 2543.36 795.438 2533.69C780.959 2546.74 737.959 2581.77 686.738 2588.71C623.516 2597.27 518.151 2581.13 473.698 2540.63Z" fill="#001364"/>
</g>
<g opacity="0.25">
<path d="M1082.52 2343.47C1082.45 2343.66 1082.37 2343.9 1082.3 2344.09L1082.78 2344.25C1082.7 2343.99 1082.6 2343.73 1082.52 2343.47Z" fill="#001364"/>
</g>
<g opacity="0.25">
<path d="M1108.86 2161.32C1107.72 2165.33 1106.75 2169.29 1105.96 2173.2C1100.18 2201.59 1103.91 2224.48 1116.74 2239.42C1127.99 2252.49 1146.34 2259.21 1169.93 2259.03C1168.88 2249.65 1168.41 2240.42 1168.4 2231.08C1168.41 2222.61 1168.87 2214.14 1169.9 2205.73C1149.71 2213.06 1125.31 2190.22 1108.86 2161.32Z" fill="#001364"/>
</g>
<g opacity="0.25">
<path d="M1363.3 2286.71C1366.52 2291 1369.99 2295.24 1373.51 2299.1C1383.75 2302.11 1449.1 2318.55 1495.62 2265.24C1495.98 2241.92 1494.83 2214.58 1490.49 2185.67C1483.57 2201.64 1467.06 2229.55 1432.86 2242.31C1383.47 2260.75 1334.08 2231.12 1334.08 2231.12C1334.08 2231.12 1313.01 2257.46 1255.71 2254.83C1212.99 2252.86 1186.28 2226.54 1175.45 2213.27C1175.41 2219.12 1175.61 2224.97 1176.05 2230.8C1176.86 2241.37 1178.32 2252.08 1180.51 2262.23C1184.07 2268.3 1215.91 2319.14 1284.29 2327.14C1345.22 2334.27 1361.42 2311.19 1364.91 2304.07C1361.99 2299.71 1359.35 2295.36 1356.86 2290.84C1353.89 2285.4 1351.16 2279.85 1348.8 2274.13C1344.14 2262.74 1340.71 2250.57 1340.99 2238.36C1342.43 2250.47 1347.39 2261.59 1353.37 2271.86C1356.4 2277.01 1359.76 2281.94 1363.3 2286.71Z" fill="#000072"/>
</g>
<g opacity="0.25">
<path d="M1663.35 3160.32C1663.35 3160.32 1727.23 3163.61 1756.21 3151.76C1874.11 3110.23 1834.57 3049.68 1904.38 2998.32C1974.18 2946.95 2044.65 2938.39 2044.65 2938.39C2044.65 2938.39 1958.38 2914.68 1889.72 2933.12C1821.07 2951.56 1733.81 3010.17 1716.69 3008.86C1699.57 3007.54 1644.25 2866.61 1575.11 2763.2C1505.96 2659.8 1209.62 2392.46 1280.74 2394.44C1351.86 2396.41 1406.19 2378.63 1406.19 2378.63C1406.19 2378.63 1479.29 2407.28 1614.62 2405.98C1726.89 2404.91 1773.4 2386.81 1786.01 2380.66C1781.65 2367.02 1778.35 2356.94 1776.47 2351.27C1744.53 2365.22 1706.05 2370.11 1667.85 2370.11C1582.49 2370.12 1498.6 2345.77 1492.66 2344.01C1490.12 2343.26 1488.58 2340.69 1489.1 2338.1C1489.24 2337.43 1493.63 2314.86 1495.16 2280.5C1449.32 2324.15 1390.07 2313.7 1373.5 2309.63C1368.44 2318.91 1352.22 2338.67 1305.8 2338.67C1298.92 2338.67 1291.38 2338.24 1283.11 2337.27C1213.96 2329.19 1180.37 2281.53 1172.81 2269.27C1144.83 2270.08 1122.74 2262.05 1109 2246.07C1094.05 2228.66 1089.53 2202.76 1095.96 2171.16C1097.47 2163.74 1099.6 2156.11 1102.29 2148.37C1089.25 2116.81 1069.85 1991.9 1062.81 1944.55C1053.63 2064.22 1050.79 2264.73 1114.98 2399.1C1121.65 2410.96 1128.9 2424 1136.19 2437.16C1196.13 2533.32 1284.19 2617.13 1363.84 2691.64C1390.02 2714.42 1425.12 2746.72 1461.97 2785.72C1485.71 2809.93 1506.75 2833.41 1523.91 2856.6C1524.04 2856.76 1524.17 2856.92 1524.3 2857.09C1619.03 2975.32 1663.35 3160.32 1663.35 3160.32Z" fill="#000072"/>
</g>
<g opacity="0.25">
<path d="M647.482 2712.51C624.034 2742.81 367.013 2894.27 325.526 2885.38C284.039 2876.49 269.221 2788.57 269.221 2788.57C266.809 2789.44 264.362 2791.94 261.962 2795.74C218.142 2914.48 264.322 3065.48 282.09 3115.27C288.644 3091.06 307.419 3046.47 360.798 3002.29C408.75 2962.61 503.936 2907.22 614.153 2843.09C680.466 2804.51 749.037 2764.6 814.433 2723.98C979.241 2621.6 1071 2346.58 1077.5 2326.55C1054.46 2243.89 1047.65 2149.81 1047.77 2066.72C1046.2 2129.44 1036.34 2290.78 977.594 2378.63C939.645 2435.39 868.767 2501.35 800.637 2552.44C787.838 2587.69 757.669 2623.52 700.985 2635.84C617.268 2654.04 543.493 2627.7 529.109 2622.05C526.089 2623.82 523.071 2625.58 520.053 2627.31L519.465 2631.84C539.223 2680.24 670.93 2682.22 647.482 2712.51Z" fill="#000072"/>
</g>
<g opacity="0.25">
<path d="M698.818 2625.86C745.589 2615.7 771.209 2590.28 784.634 2564.21C741.883 2594.99 701.388 2619.03 672.178 2630.17C680.92 2629.21 689.817 2627.82 698.818 2625.86Z" fill="#001364"/>
</g>
<g opacity="0.25">
<path d="M698.818 2625.86C745.589 2615.7 771.209 2590.28 784.634 2564.21C741.883 2594.99 701.388 2619.03 672.178 2630.17C680.92 2629.21 689.817 2627.82 698.818 2625.86Z" fill="#001364"/>
</g>
<g opacity="0.25">
<path d="M881.23 3209.21C878.185 3210.07 875.134 3210.93 872.129 3211.77C865.39 3213.68 858.762 3215.55 852.18 3217.39L852.153 3217.4C852.153 3217.4 836.882 3235.39 797.371 3259.76C757.86 3284.13 622.231 3300.96 622.231 3300.96C678.506 3304.13 749.754 3299.9 827.508 3275.78C852.153 3252.84 872.919 3222.2 881.23 3209.21Z" fill="#001364"/>
</g>
<g opacity="0.25">
<path d="M1100.78 3183.88C1063.59 3181.31 991.303 3179.53 926.44 3196.76L888.083 3251.96L883.027 3255.43C896.604 3249.66 910.307 3243.26 924.103 3236.13C925.548 3235.38 927.273 3235.37 928.728 3236.1C930.188 3236.83 931.21 3238.22 931.479 3239.83L937.385 3275.28C987.692 3277.64 1058.34 3278.63 1093.07 3274.09C1104.61 3255.97 1100.78 3183.91 1100.78 3183.88Z" fill="#001364"/>
</g>
<g opacity="0.25">
<path d="M1798.1 3214.6C1740.95 3214.48 1696.42 3231.4 1655.59 3252C1655.23 3252.82 1624.44 3322.44 1599.07 3345.26C1618.37 3339.19 1635.35 3333.15 1650.09 3327.89C1669.2 3321.08 1684.3 3315.69 1695.94 3313.36C1717.39 3309.07 1763.3 3300.79 1792.45 3295.59C1799.83 3274.88 1798.73 3229.87 1798.1 3214.6Z" fill="#001364"/>
</g>
<g opacity="0.25">
<path d="M1592.44 3285.73C1584.76 3289.74 1577.05 3293.55 1569.28 3297.17C1540.52 3342.36 1484.9 3367.77 1472.8 3372.89C1481.09 3372.26 1489.27 3371.31 1497.21 3369.97C1512.35 3367.41 1526.6 3364.5 1540.07 3361.39C1567.35 3342.32 1586.06 3301.32 1592.44 3285.73Z" fill="#001364"/>
</g>
<g opacity="0.25">
<path d="M1111.27 2807.05C1092.18 2805.07 1073.16 2802.13 1054.53 2797.53C1035.92 2792.88 1017.56 2787.22 999.796 2780.06C964.29 2765.89 930.395 2747.08 901.421 2722.39C917.054 2733.17 933.518 2742.56 950.514 2750.78C967.42 2759.16 984.872 2766.34 1002.58 2772.63C1038.06 2785.06 1074.9 2793.52 1112.24 2796.89C1121.56 2797.95 1130.93 2798.34 1140.29 2798.83C1149.66 2798.91 1159.05 2799.24 1168.42 2798.78C1187.2 2798.55 1205.88 2796.37 1224.51 2793.87C1256.4 2788.93 1287.93 2781.15 1318.8 2770.85C1251.61 2778.63 1039.08 2767.02 1001.19 2718.7C962.666 2669.57 1071.32 2511.99 1098.22 2513.96C1125.11 2515.94 1192.82 2587.06 1264.84 2646.33C1295.67 2671.7 1348.01 2718.26 1397.79 2763.22C1397.79 2763.21 1397.78 2763.21 1397.78 2763.2C1397.78 2763.2 1445.12 2792.36 1484.57 2824.89C1450.7 2786.86 1408.71 2747.56 1365.28 2706.96C1280.15 2627.38 1183.65 2537.18 1120.94 2431.95C1106.08 2407.02 1094.1 2379.06 1084.42 2349.28C1084.4 2349.28 1084.38 2349.26 1084.37 2349.26C1080.71 2349.95 1081.46 2346.47 1081.46 2346.47L1081.45 2346.48C1058.12 2412.09 968.348 2640.38 819.818 2732.65C769.347 2764.01 717.037 2794.89 665.327 2825.09L663.403 2848.86C736.871 2819.26 817.129 2772.44 846.762 2765.65C876.397 2758.86 962.667 2803.39 970.569 2815.25C978.471 2827.1 981.105 2966.05 930.397 2991.08C879.689 3016.1 823.384 2992.56 775.971 2996.02C728.555 2999.47 695.533 3029.08 695.533 3029.08C695.533 3029.08 695.515 3029.1 695.515 3029.1C718.168 3025.06 746.594 3024.68 779.063 3034.25C873.775 3062.21 941.105 3068.9 990.961 3055.3C1038.99 3042.2 1087.95 3054.53 1105.73 3060.04C1105.95 3024.59 1110.1 2873.21 1163.2 2828.65C1170.44 2818.83 1176.92 2811.65 1180.76 2807.67C1157.65 2809.45 1134.36 2809.31 1111.27 2807.05Z" fill="#000072"/>
</g>
<g opacity="0.25">
<path d="M890.555 3105.66C864.87 3132.33 752.259 3169.87 660.543 3170.86C568.826 3171.84 520.124 3151.1 520.124 3151.1C503.004 3175.47 507.841 3225.81 507.841 3225.81H507.844C545.1 3231.76 609.539 3240.16 670.165 3238.85C744.273 3237.29 802.238 3220.91 869.353 3201.95C886.732 3197.04 904.7 3191.97 923.819 3186.89C1002.49 3166 1091.57 3172.44 1118.86 3175.14L1120.57 3171.16C1117.28 3140.12 1111.89 3105.11 1106.29 3070.96C1094 3066.91 1042.46 3051.82 993.646 3065.15C971.001 3071.32 945.036 3073.51 914.903 3071.63C914.903 3071.63 916.238 3078.99 890.555 3105.66Z" fill="#000072"/>
</g>
<g opacity="0.25">
<path d="M1129.71 2426.73C1131.8 2430.24 1134.03 2433.69 1136.19 2437.16C1128.9 2424 1121.65 2410.96 1114.98 2399.1C1119.55 2408.66 1124.45 2417.89 1129.71 2426.73Z" fill="#001364"/>
</g>
<g opacity="0.25">
<path d="M1129.71 2426.73C1131.8 2430.24 1134.03 2433.69 1136.19 2437.16C1128.9 2424 1121.65 2410.96 1114.98 2399.1C1119.55 2408.66 1124.45 2417.89 1129.71 2426.73Z" fill="#001364"/>
</g>
<g opacity="0.25">
<path d="M1710.82 3186.16C1702.58 3186.42 1696.37 3186.62 1695.52 3186.63C1700.43 3186.58 1705.55 3186.43 1710.82 3186.16Z" fill="#001364"/>
</g>
<g opacity="0.25">
<path d="M1408 3086.59C1454.39 3095.22 1521.06 3099.12 1605.47 3081.83C1593.16 3030.65 1573.67 2967.35 1543.54 2907.09C1538.7 2897.4 1532.81 2887.62 1526.21 2877.76V2880.44C1526.21 2880.44 1464.28 2823.26 1397.79 2763.22C1466.75 2831.7 1534.93 3000.3 1492.79 3029.27C1450.64 3058.24 1339.13 3066.14 1339.12 3066.14L1339.13 3066.14L1371.45 3077.88C1371.45 3077.88 1388.41 3081.87 1408 3086.59Z" fill="#000072"/>
</g>
<g opacity="0.25">
<path d="M1470.4 3238.69C1409.81 3261.74 1302.8 3241.98 1302.8 3241.98C1292.59 3257.78 1291.61 3288.08 1291.61 3288.08C1291.48 3289.7 1294.05 3292.37 1299.03 3295.5C1345.37 3307.36 1426.64 3322.94 1498.47 3310.05C1541.04 3302.41 1576.76 3282.89 1614.58 3262.23C1666.89 3233.65 1720.97 3204.39 1797.27 3204.39L1794.64 3181.92C1792.86 3182.55 1791.07 3183.13 1789.24 3183.66C1753.52 3194.03 1719.04 3197 1691.25 3197C1655.29 3197 1630.52 3192.03 1628.74 3191.66C1626.55 3191.21 1624.91 3189.38 1624.69 3187.16C1624.61 3186.41 1620.59 3147.37 1607.81 3091.77C1570.55 3099.43 1536.77 3103.1 1506.59 3104.1C1496.27 3120.07 1468.4 3166.42 1468.4 3166.42C1472.11 3168.35 1475.84 3170.44 1479.62 3172.72C1481.84 3174.06 1482.59 3176.8 1481.57 3179.11C1495.87 3195.29 1511.57 3223.02 1470.4 3238.69Z" fill="#001364"/>
</g>
<g opacity="0.25">
<path d="M1397.79 2763.22C1464.28 2823.26 1526.21 2880.44 1526.21 2880.44V2877.76C1514.6 2860.41 1500.52 2842.79 1484.57 2824.89C1445.12 2792.36 1397.78 2763.2 1397.78 2763.2C1397.78 2763.21 1397.79 2763.21 1397.79 2763.22Z" fill="#001364"/>
</g>
<g opacity="0.25">
<path d="M1397.79 2763.22C1464.28 2823.26 1526.21 2880.44 1526.21 2880.44V2877.76C1514.6 2860.41 1500.52 2842.79 1484.57 2824.89C1445.12 2792.36 1397.78 2763.2 1397.78 2763.2C1397.78 2763.21 1397.79 2763.21 1397.79 2763.22Z" fill="#001364"/>
</g>
<g opacity="0.25">
<path d="M1590.91 2257.13C1563.25 2240.34 1529.43 2149.46 1529.43 2149.46C1554.84 2283.68 1529.47 2342.55 1529.43 2342.66C1568.48 2351.34 1635.2 2362.97 1697.06 2358.46C1730.2 2355.41 1755.63 2348.81 1775.12 2340.57C1792.06 2332.83 1806.8 2322.3 1818.08 2308.26C1874.18 2238.48 1870.05 2120.32 1850.44 2015.9C1850.37 2017.19 1843.54 2137.89 1797.36 2190.95C1750.94 2244.29 1618.57 2273.92 1590.91 2257.13Z" fill="#000072"/>
</g>
<g opacity="0.25">
<path d="M960.031 1781.16C909.361 1759.22 856.47 1718.06 837.084 1705.45C825.558 1703.35 814.245 1701.15 803.165 1698.82C801.189 1699.81 797.406 1701.75 792.048 1704.66C814.372 1726.54 916.256 1818.85 1061.56 1837.19C1058.33 1830.76 1051.54 1819.85 1042.59 1806.86C1042.4 1806.87 1021 1807.56 960.031 1781.16Z" fill="#000072"/>
</g>
<g opacity="0.25">
<path d="M1502.36 1744.18C1502.32 1744.21 1502.28 1744.23 1502.24 1744.26C1502.26 1744.25 1502.35 1744.21 1502.35 1744.21L1502.36 1744.18Z" fill="#001364"/>
</g>
<g opacity="0.25">
<path d="M1252.09 1781.16C1171.09 1802.05 1098.22 1804.71 1098.22 1804.71C1098.22 1804.71 1093.07 1809.82 1087.54 1815.35C1082.57 1823.52 1079.15 1830.57 1076.96 1835.73C1077.29 1836.45 1077.62 1837.16 1077.95 1837.85C1128.64 1835.93 1374.99 1821.61 1516.81 1722.67L1519.95 1718.01C1476.57 1723.7 1430.82 1728.21 1382.94 1731.3C1360.91 1742.57 1311.58 1765.81 1252.09 1781.16Z" fill="#000072"/>
</g>
<g opacity="0.25">
<path d="M549.76 2318.38C457.894 2337.14 368.99 2313.44 368.99 2313.44C367.084 2313.79 365.404 2315.4 363.911 2317.85C359.757 2348.99 352.904 2403.46 351.593 2433.09C386.611 2414.48 532.956 2343.84 699.843 2363.85C700.835 2361.53 702.193 2358.42 703.87 2354.69C729.393 2271.06 765.949 2115.62 747.742 1954.45C747.742 1954.45 732.506 2003.26 712.749 2092.17C692.992 2181.07 641.626 2299.61 549.76 2318.38Z" fill="#001364"/>
</g>
<g opacity="0.4">
<path d="M530.991 3286.76C530.991 3286.76 523.41 3245.17 525.064 3242.06C526.718 3238.96 517.491 3234.08 511.893 3233.75C506.295 3233.42 485.551 3233.75 485.551 3233.75C485.551 3233.75 482.169 3242.85 482.414 3244.09C482.658 3245.32 491.756 3273.61 496.103 3276.76C500.45 3279.9 530.991 3286.76 530.991 3286.76Z" fill="white"/>
</g>
<g opacity="0.4">
<path d="M495.43 3162.3C495.43 3162.3 516.174 3129.04 549.101 3117.19C582.028 3105.33 625.043 3105.33 654.572 3089.2C684.102 3073.06 693.321 3065.62 731.516 3062.1C769.711 3058.58 815.151 3059.76 815.151 3059.76C815.151 3059.76 775.045 3035.12 732.866 3031.7C713.765 3030.15 694.844 3033.02 679.681 3036.74C661.36 3041.24 648.525 3046.99 647.482 3047.71C645.577 3049.03 642.846 3064.74 597.455 3075.82C552.064 3086.89 526.179 3088.54 507.841 3101.38C489.503 3114.22 495.43 3162.3 495.43 3162.3Z" fill="white"/>
</g>
<g opacity="0.4">
<path d="M682.561 3031.93C684.101 3030.09 695.461 2887.85 685.583 2872.04C675.705 2856.24 663.714 2852.86 660.562 2856.24C657.41 2859.61 650.268 3044.02 650.268 3044.02L682.561 3031.93Z" fill="white"/>
</g>
<g opacity="0.4">
<path d="M1297.04 3354.59L1291.6 3304.11L1266.25 3301.88C1266.25 3301.88 1266.76 3342.23 1269.8 3345.61C1272.84 3348.99 1297.04 3354.59 1297.04 3354.59Z" fill="white"/>
</g>
<g opacity="0.4">
<path d="M1275.47 3271.28C1275.47 3271.28 1295.89 3216.08 1342.31 3191.82C1388.74 3167.56 1464.14 3177.08 1464.14 3177.08C1464.14 3177.08 1447.98 3147.16 1387.41 3146.49C1387.41 3146.49 1400.26 3100.96 1399.93 3099.19C1399.61 3097.43 1367.01 3084.3 1366.35 3086.58C1365.69 3088.87 1363.96 3120.85 1350.17 3139.76C1336.39 3158.67 1308.73 3182.41 1306.75 3183.88C1304.78 3185.34 1259.34 3238.46 1275.47 3271.28Z" fill="white"/>
</g>
<g opacity="0.4">
<path d="M1363.84 3072.01C1363.84 3072.01 1357.79 3014.78 1337.04 2956.17C1316.3 2897.56 1218.84 2804.02 1218.84 2804.02L1189.2 2808.91C1189.2 2808.91 1252.58 2856.93 1285.4 2929.72C1318.21 3002.5 1334.06 3063.76 1334.06 3063.76L1344.29 3072.01H1363.84Z" fill="white"/>
</g>
<path d="M1667.13 2382.31C1579.68 2382.31 1495.16 2357.79 1489.11 2356C1480.36 2353.41 1475.04 2344.56 1476.85 2335.62C1477.24 2333.68 1514.93 2138.76 1402.31 2019.99C1397.96 2015.41 1396.4 2008.85 1398.22 2002.81C1399.85 1997.38 1409.56 1973.8 1456.37 1966.26L1400.56 1884.8C1395.06 1876.78 1397.11 1865.82 1405.13 1860.33C1413.15 1854.83 1424.11 1856.87 1429.61 1864.9L1502.7 1971.58C1506.39 1976.97 1506.8 1983.96 1503.75 1989.74C1500.71 1995.52 1494.71 1999.14 1488.18 1999.14C1461.08 1999.14 1446.51 2003.93 1438.95 2008.15C1533.44 2119.91 1521.18 2275.51 1514.07 2326.22C1567.15 2339.54 1746.41 2377.45 1808.34 2300.43C1890.1 2198.73 1833.42 1978.12 1805.25 1888C1768.83 1771.44 1616.86 1713.14 1615.33 1712.56C1606.24 1709.15 1601.62 1699 1605.03 1689.9C1608.45 1680.8 1618.58 1676.18 1627.68 1679.59C1634.58 1682.17 1797.26 1744.37 1838.86 1877.5C1875.94 1996.14 1924.84 2211.71 1835.78 2322.49C1798.55 2368.8 1732.03 2382.3 1667.13 2382.31Z" fill="#000072"/>
<path d="M1486.01 1964.06C1557.47 1963.29 1628.81 1978.23 1693.64 2007.87C1643.65 1994.3 1591.55 1989.69 1540.01 1992.97C1523.62 1994.05 1505.94 1995.86 1490.22 1999.03C1465.24 2003.15 1460.69 1966.03 1486.01 1964.06Z" fill="#000072"/>
<path d="M1305.41 2351.15C1298.14 2351.15 1290.24 2350.69 1281.66 2349.69C1215.78 2341.99 1179.52 2300.7 1166.16 2281.79C1130.35 2281.06 1110.26 2266.72 1099.52 2254.21C1081.95 2233.77 1076.48 2204.19 1083.7 2168.67C1097.55 2100.61 1158.53 2015.91 1259.7 1990.79C1361.2 1965.6 1419.76 1990.69 1422.2 1991.77C1431.1 1995.7 1435.12 2006.1 1431.18 2015C1427.26 2023.85 1416.91 2027.87 1408.06 2024.01C1407.08 2023.61 1356.52 2003.03 1268.19 2024.96C1175.99 2047.85 1127.98 2127.64 1118.21 2175.69C1114.74 2192.75 1113.31 2216.24 1126.22 2231.26C1138.22 2245.22 1159.27 2247.23 1174.79 2246.46C1181.49 2246.12 1187.94 2249.72 1191.16 2255.69C1192.28 2257.71 1220.25 2307.07 1285.75 2314.72C1331.56 2320.07 1350.13 2306.57 1353.78 2298.34C1354.81 2293.55 1357.64 2290.1 1361.91 2287.6C1366.28 2285.04 1371.34 2285.26 1376.14 2286.84C1378.81 2287.69 1443.52 2307.69 1487.44 2255.63C1493.7 2248.21 1504.81 2247.26 1512.25 2253.53C1519.68 2259.8 1520.62 2270.91 1514.35 2278.34C1468.23 2333.01 1406.07 2328.84 1378.8 2323.64C1368.62 2335.92 1347.52 2351.15 1305.41 2351.15Z" fill="#000072"/>
<path d="M1357.07 2314.79C1345.84 2291.24 1336.77 2264.53 1340.99 2238.36C1348.37 2261.22 1365.79 2278.33 1384.19 2292.33C1392.85 2297.72 1395.49 2309.12 1390.09 2317.78C1382.14 2330.73 1362.73 2328.6 1357.07 2314.79Z" fill="#000072"/>
<path d="M1158.39 2267.43C1156.97 2225.03 1161.69 2162.46 1203.69 2140.57C1195.15 2147.92 1189.54 2157.46 1186.53 2167.6C1177.92 2197.93 1183.83 2231.2 1192.94 2260.66C1200.64 2286.75 1161.16 2294.54 1158.39 2267.43Z" fill="#000072"/>
<path d="M346.274 2459.45C343.266 2459.45 340.256 2458.68 337.551 2457.14C332.06 2454 328.667 2448.17 328.667 2441.85C328.667 2403.51 343.994 2295.76 344.646 2291.19C374.924 2070.9 495.693 1915.79 591.672 1824.47C695.459 1725.73 790.954 1679.46 794.968 1677.54C803.74 1673.35 814.25 1677.06 818.449 1685.82C822.646 1694.59 818.94 1705.11 810.168 1709.31C808.742 1709.99 714.636 1755.84 615.07 1850.82C523.527 1938.14 408.351 2086.28 379.516 2296.08C379.382 2297.02 369.619 2365.65 365.588 2411.88C421.865 2384.76 555.017 2332.07 706.997 2352.07C716.638 2353.34 723.423 2362.18 722.156 2371.83C720.886 2381.47 712.017 2388.27 702.403 2386.98C517.576 2362.63 356.839 2456.05 355.24 2457C352.475 2458.63 349.377 2459.45 346.274 2459.45Z" fill="#000072"/>
<path d="M1691.26 3209.47C1653.86 3209.47 1628.06 3204.29 1626.2 3203.9C1618.65 3202.34 1613 3196.05 1612.24 3188.39C1612.1 3186.94 1597.21 3042.37 1532.36 2912.68C1501.93 2851.82 1431.4 2785.89 1356.73 2716.09C1271 2635.94 1173.82 2545.09 1110.2 2438.36C989.777 2236.31 1048.73 1856.53 1051.3 1840.46C1052.65 1832.01 1059.89 1825.76 1068.44 1825.64C1071.58 1825.59 1383.81 1819.75 1531.39 1695.84C1538.83 1689.59 1549.94 1690.55 1556.19 1698C1562.45 1705.45 1561.48 1716.55 1554.03 1722.81C1414.37 1840.07 1150.56 1857.78 1084.03 1860.4C1074.52 1931.76 1039.22 2250.5 1140.45 2420.33C1201.51 2522.79 1296.75 2611.81 1380.78 2690.37C1461.17 2765.52 1530.6 2830.42 1563.85 2896.93C1620.6 3010.42 1640.36 3131.23 1645.67 3171.33C1669.64 3174.42 1725.26 3178.6 1782.91 3161.85C1823.12 3150.18 1852.66 3108.34 1881.23 3067.88C1905.98 3032.81 1929.37 2999.7 1960.84 2981.71C1999.73 2959.49 2043.55 2955.44 2075.33 2956.44C2011.51 2885.74 1887.52 2785.33 1886.07 2784.16C1882.96 2781.65 1880.79 2778.14 1879.94 2774.23C1831.99 2555.22 1763.5 2351.87 1762.81 2349.84C1759.7 2340.63 1764.64 2330.64 1773.85 2327.52C1783.06 2324.39 1793.05 2329.34 1796.17 2338.55C1796.85 2340.58 1864.7 2542.01 1913.01 2760.68C1941.83 2784.21 2085.97 2903.36 2130.33 2968.67C2134.4 2974.65 2134.39 2982.5 2130.32 2988.47C2126.25 2994.44 2118.92 2997.32 2111.89 2995.73C2111.17 2995.58 2035.92 2979.37 1978.31 3012.29C1953.62 3026.39 1932.43 3056.41 1909.99 3088.19C1877.93 3133.6 1844.78 3180.55 1792.73 3195.67C1755.79 3206.39 1720.08 3209.47 1691.26 3209.47Z" fill="#000072"/>
<path d="M1068.69 1860.85C1066.92 1860.85 1065.12 1860.58 1063.35 1860.02C1056.25 1857.75 1051.56 1851.4 1051.11 1844.35C1045.31 1830.31 1002.57 1768.82 965.168 1731.55C958.281 1724.68 958.261 1713.53 965.124 1706.65C971.989 1699.76 983.137 1699.75 990.022 1706.6C1009.32 1725.84 1033.3 1754.66 1054.18 1783.72C1059.57 1791.22 1064.1 1797.78 1067.91 1803.53C1085.33 1774.73 1119.44 1735.36 1182.27 1714.23C1191.48 1711.14 1201.47 1716.09 1204.56 1725.31C1207.66 1734.52 1202.71 1744.51 1193.49 1747.61C1113.83 1774.4 1089.99 1835.03 1086.17 1846.33C1085.92 1847.34 1085.59 1848.25 1085.27 1849.16C1082.7 1856.34 1075.94 1860.85 1068.69 1860.85Z" fill="#000072"/>
<path d="M1068.71 1860.85C1068.08 1860.85 1067.45 1860.81 1066.82 1860.74C889.76 1841.82 775.507 1720.54 770.729 1715.39C764.12 1708.26 764.542 1697.12 771.674 1690.51C778.801 1683.9 789.931 1684.32 796.54 1691.44C797.626 1692.61 906.987 1808.25 1070.56 1825.73C1080.23 1826.76 1087.23 1835.44 1086.19 1845.11C1085.23 1854.14 1077.59 1860.85 1068.71 1860.85Z" fill="#000072"/>
<path d="M283.703 3151.59C276.716 3151.59 270.261 3147.42 267.48 3140.8C262.622 3129.24 150.087 2855.92 290.612 2705.75C292.714 2703.5 295.37 2701.85 298.312 2700.94C299.413 2700.61 409.708 2666.45 519.706 2601.22C524.528 2598.35 530.426 2597.97 535.59 2600.17C536.322 2600.47 612.192 2631.89 696.166 2613.65C777.765 2595.91 788.019 2527.42 785.082 2502.52C782.78 2482.98 751.808 2475.59 751.496 2475.52C748.51 2474.86 745.668 2473.41 743.4 2471.36C728.4 2457.8 700.006 2437.72 686.735 2437.72C668.505 2437.72 657.145 2448.27 657.038 2448.37C652.807 2452.6 647.084 2455.23 641.235 2453.97C635.529 2452.74 631.167 2449.56 629.001 2444.2C627.316 2442.06 617.082 2431.42 584.426 2439.81C545.776 2449.71 539.663 2500.52 539.607 2501.03C538.528 2510.67 529.836 2517.63 520.215 2516.61C510.574 2515.57 503.587 2506.97 504.592 2497.32C504.912 2494.24 513.164 2421.73 575.681 2405.7C611.977 2396.39 634.006 2404.17 646.457 2413.03C655.82 2407.76 669.474 2402.51 686.735 2402.51C715.05 2402.51 750.912 2431.22 763.644 2442.26C784.726 2448.07 816.132 2465.12 820.053 2498.4C825.578 2545.28 798.864 2627.36 703.647 2648.05C624.775 2665.21 554.23 2644.35 530.31 2635.82C430.798 2693.68 335.42 2726.01 313.271 2733.14C225.107 2831.83 258.615 2996.55 283.098 3078.21C295.383 3053.29 316.514 3022.71 352.827 2992.65C401.572 2952.32 497.173 2896.69 607.869 2832.28C674.104 2793.74 742.593 2753.89 807.837 2713.36C974.207 2610.01 1065.04 2324.54 1065.93 2321.67C1068.84 2312.39 1078.72 2307.22 1087.99 2310.12C1097.27 2313.02 1102.44 2322.9 1099.54 2332.18C1095.71 2344.42 1003.79 2633.08 826.416 2743.27C760.742 2784.06 692.029 2824.05 625.576 2862.71C520.776 2923.69 421.787 2981.29 375.278 3019.78C305.573 3077.46 301.318 3134.48 301.284 3135.05C300.784 3143.21 294.726 3149.96 286.66 3151.33C285.671 3151.5 284.679 3151.59 283.703 3151.59Z" fill="#000072"/>
<path d="M524.164 2634.07C505.299 2634.07 443.8 2630.31 404.813 2583.87C372.071 2544.86 364.491 2487.34 382.284 2412.9C384.542 2403.44 394.056 2397.62 403.5 2399.87C412.958 2402.13 418.793 2411.63 416.532 2421.09C401.505 2483.95 406.583 2531.04 431.625 2561.04C465.561 2601.7 527.067 2598.82 527.67 2598.79C537.348 2598.33 545.678 2605.67 546.237 2615.35C546.796 2625.04 539.435 2633.35 529.75 2633.94C529.289 2633.97 527.323 2634.07 524.164 2634.07Z" fill="#000072"/>
<path d="M644.569 2453.53C636.302 2453.53 628.929 2447.68 627.303 2439.26L614.468 2372.87C612.622 2363.32 618.865 2354.09 628.411 2352.24C637.937 2350.38 647.193 2356.64 649.038 2366.19L661.872 2432.58C663.718 2442.13 657.475 2451.36 647.929 2453.21C646.803 2453.43 645.678 2453.53 644.569 2453.53Z" fill="#001364"/>
<path d="M666.144 2428.45C667.25 2462.9 657.357 2500.19 631.755 2524.17C645.36 2496.74 643.225 2463.79 631.795 2436.2C626.461 2427.53 629.163 2416.18 637.83 2410.85C651.161 2402.8 666.779 2413.37 666.144 2428.45Z" fill="#001364"/>
<path d="M770.407 2455.82C764.439 2486.25 754.854 2516.75 734.81 2540.63C743.443 2513.24 740.879 2483.84 735.204 2456.57C732.775 2446.9 738.647 2437.09 748.317 2434.66C760.896 2431.19 773.264 2443.2 770.407 2455.82Z" fill="#001364"/>
<path d="M686.73 2437.73C684.486 2437.73 682.206 2437.3 680.004 2436.38C671.022 2432.67 666.752 2422.37 670.468 2413.38C671.384 2411.17 761.696 2189.31 735.322 1955.85C734.231 1946.19 741.179 1937.47 750.84 1936.38C760.506 1935.31 769.219 1942.23 770.313 1951.9C797.737 2194.65 706.883 2417.49 703.001 2426.86C700.192 2433.63 693.639 2437.73 686.73 2437.73Z" fill="#001364"/>
<path d="M1489.81 3116.86C1382.99 3116.87 1324.02 3084.27 1320.77 3082.43C1316.2 3079.83 1313.04 3075.33 1312.13 3070.15C1288.82 2936.94 1208.01 2861.28 1184.29 2841.59C1144.32 2860.99 1127.5 2982.05 1128.44 3066.92C1128.5 3072.73 1125.7 3078.19 1120.95 3081.53C1116.19 3084.86 1110.1 3085.64 1104.66 3083.6C1104.13 3083.41 1048.47 3063.14 996.93 3077.21C942.841 3091.95 871.566 3085.23 772.631 3056.03C701.303 3034.97 652.275 3068.97 651.789 3069.31C646.21 3073.27 638.842 3073.65 632.895 3070.25C626.948 3066.87 623.498 3060.35 624.05 3053.53L642.903 2820.6C643.689 2810.91 652.144 2803.7 661.873 2804.48C671.563 2805.26 678.785 2813.75 678.001 2823.45L661.646 3025.49C688.277 3015.56 730.804 3006.97 782.598 3022.26C873.726 3049.16 940.804 3056.02 987.669 3043.23C1027.98 3032.24 1068.82 3038.02 1093.55 3043.82C1094.22 3021.12 1096.22 2984.79 1102.08 2947.36C1115.7 2860.29 1143.49 2812.3 1184.69 2804.71C1189.34 2803.85 1194.16 2804.91 1198.03 2807.64C1202.78 2811 1312.95 2890.39 1345.16 3055.16C1370.32 3066.3 1462.49 3099.64 1608.08 3068.56C1617.6 3066.54 1626.94 3072.58 1628.97 3082.1C1631 3091.6 1624.94 3100.96 1615.43 3102.99C1568.21 3113.07 1526.22 3116.86 1489.81 3116.86Z" fill="#000072"/>
<path d="M654.955 3325.24C558.395 3325.25 493.668 3301.73 488.922 3299.96C486.334 3298.98 484.012 3297.42 482.142 3295.39C454.569 3265.41 449.854 3212.57 468.126 3138.33C478.712 3095.32 518.004 3067.92 578.766 3061.16C612.865 3057.37 628.749 3042.86 629.411 3042.25C636.452 3035.68 647.556 3035.9 654.221 3042.85C660.886 3049.8 660.815 3060.74 653.95 3067.5C651.518 3069.89 628.872 3091.02 582.656 3096.16C550.815 3099.7 511.032 3111.35 502.317 3146.75C488.208 3204.08 489.351 3246.96 505.425 3268.38C534.915 3277.87 716.951 3329.19 918.357 3225.02C923.357 3222.44 929.297 3222.39 934.326 3224.92C939.36 3227.44 942.886 3232.21 943.811 3237.76L948.054 3263.23C1016.51 3266.05 1092.54 3265.18 1105.54 3258.62C1105.49 3258.58 1112.84 3252.21 1110.94 3208.54C1109.62 3178.18 1104.23 3135.45 1093.46 3069.98C1091.89 3060.38 1098.39 3051.32 1107.98 3049.75C1117.56 3048.2 1126.63 3054.67 1128.21 3064.26C1153.44 3217.77 1152.54 3270.13 1124.35 3288.37C1099.84 3304.23 981.782 3300.22 932.157 3297.76C923.888 3297.35 917.023 3291.24 915.663 3283.07L912.975 3266.94C817.05 3312.11 727.118 3325.24 654.955 3325.24Z" fill="#000072"/>
<path d="M657.302 3261.7C566.738 3261.7 475.552 3243.28 471.531 3242.46C462.005 3240.51 455.862 3231.21 457.808 3221.69C459.756 3212.17 469.061 3206.04 478.579 3207.96C479.573 3208.17 579.251 3228.27 669.902 3226.36C742.417 3224.83 799.673 3208.65 865.969 3189.92C883.388 3185 901.399 3179.91 920.61 3174.81C1016.72 3149.29 1124.41 3163.08 1128.95 3163.67C1138.59 3164.95 1145.36 3173.79 1144.09 3183.43C1142.82 3193.06 1133.99 3199.85 1124.34 3198.59C1123.3 3198.44 1018.88 3185.14 929.647 3208.84C910.704 3213.87 892.828 3218.92 875.543 3223.81C806.922 3243.19 747.66 3259.93 670.643 3261.56C666.21 3261.65 661.75 3261.7 657.302 3261.7Z" fill="#000072"/>
<path d="M1445.82 3396.62C1354.6 3396.62 1261.57 3366.93 1256.88 3365.42C1250.52 3363.35 1245.87 3357.87 1244.89 3351.26C1244.6 3349.36 1238.01 3304.07 1244.86 3254.08C1250.79 3210.76 1278.93 3182.67 1303.75 3157.89C1310.57 3151.08 1317.01 3144.66 1322.94 3138.03C1346 3112.3 1346.12 3081.5 1346.12 3081.2C1346.08 3071.52 1353.86 3063.56 1363.53 3063.45C1363.6 3063.45 1363.67 3063.45 1363.73 3063.45C1373.32 3063.45 1381.16 3071.08 1381.33 3080.69C1381.36 3082.5 1381.72 3125.2 1349.17 3161.53C1342.58 3168.88 1335.49 3175.96 1328.63 3182.81C1305.71 3205.68 1284.07 3227.29 1279.74 3258.85C1275.46 3290.1 1277.07 3319.75 1278.48 3335.12C1311.75 3344.63 1415.33 3371.1 1495.13 3357.65C1560.31 3346.64 1609.78 3329 1645.9 3316.11C1665.49 3309.13 1680.96 3303.61 1693.48 3301.1C1719.6 3295.88 1779.9 3285.11 1805.1 3280.63C1809.1 3261.43 1814.95 3217.42 1797.46 3173.75C1793.84 3164.73 1798.23 3154.48 1807.25 3150.86C1816.27 3147.26 1826.53 3151.63 1830.14 3160.66C1858.15 3230.56 1837.11 3298.46 1836.2 3301.32C1834.22 3307.55 1828.93 3312.18 1822.49 3313.31C1821.59 3313.47 1732.75 3329.16 1700.39 3335.63C1690.38 3337.64 1675.97 3342.77 1657.73 3349.28C1620.38 3362.6 1569.22 3380.84 1500.99 3392.36C1483.2 3395.37 1464.54 3396.62 1445.82 3396.62Z" fill="#000072"/>
<path d="M1439.14 3337.69C1345.61 3337.69 1258.24 3307.53 1253.77 3305.96C1244.6 3302.74 1239.77 3292.7 1242.98 3283.53C1246.19 3274.36 1256.24 3269.51 1265.41 3272.73C1266.67 3273.16 1392.28 3316.45 1496.26 3297.75C1536.82 3290.46 1571.67 3271.42 1608.57 3251.26C1666 3219.88 1731.09 3184.32 1826.71 3193.05C1836.39 3193.94 1843.53 3202.5 1842.64 3212.19C1841.76 3221.87 1833.19 3228.98 1823.51 3228.12C1738.6 3220.39 1681.07 3251.78 1625.45 3282.16C1587.71 3302.78 1548.68 3324.11 1502.49 3332.41C1481.65 3336.15 1460.23 3337.69 1439.14 3337.69Z" fill="#000072"/>
<path d="M1476.97 3194.69C1473.87 3194.69 1470.74 3193.88 1467.9 3192.17C1386.31 3143.01 1325.12 3186.74 1322.55 3188.63C1314.75 3194.37 1303.74 3192.75 1297.96 3184.98C1292.18 3177.21 1293.72 3166.26 1301.46 3160.44C1304.76 3157.95 1383.55 3100.26 1486.07 3162C1494.4 3167.02 1497.08 3177.84 1492.06 3186.17C1488.76 3191.66 1482.94 3194.69 1476.97 3194.69Z" fill="#000072"/>
<path d="M901.419 2722.39C1000.75 2771.88 1112.34 2795.77 1222.87 2784.15C1259.58 2780.53 1296.28 2773.58 1334.08 2765.56C1204.3 2852.22 1009.86 2837.01 901.419 2722.39Z" fill="#001364"/>
<path d="M1885.12 2783.33C1837.99 2734.69 1792.65 2685.05 1748.87 2633.53C1705.55 2582.08 1662.84 2529.38 1628.45 2471.49C1647.86 2498.92 1669.73 2524.36 1692.13 2549.23C1737.13 2598.8 1785.32 2645.4 1834.45 2690.83C1859.07 2713.49 1884.07 2736 1909.24 2757.68C1927.03 2774.12 1902.77 2800.14 1885.12 2783.33Z" fill="#000072"/>
<path d="M1892.26 3146.34C1872.29 3146.34 1858.58 3145.2 1856.88 3145.05C1847.2 3144.2 1840.04 3135.66 1840.88 3125.98C1841.73 3116.3 1850.3 3109.19 1859.95 3109.97C1861.14 3110.08 1980.06 3119.87 2031.81 3079.3C2083.8 3038.53 2098.44 2975.39 2098.58 2974.75C2100.7 2965.28 2110.11 2959.29 2119.57 2961.39C2129.05 2963.49 2135.04 2972.84 2132.97 2982.33C2132.29 2985.4 2115.75 3058.22 2053.54 3107C2010.42 3140.81 1936.19 3146.34 1892.26 3146.34Z" fill="#000072"/>
<path d="M1904.96 3104.35C1895.49 3104.35 1889.35 3103.98 1888.6 3103.93C1878.9 3103.31 1871.53 3094.94 1872.15 3085.24C1872.76 3075.54 1881.19 3068.3 1890.83 3068.78C1891.34 3068.83 1942.92 3071.85 1981.4 3058.71C2020.02 3045.51 2048.55 3010.23 2050.79 2972.91C2051.37 2963.2 2059.73 2955.77 2069.42 2956.39C2079.12 2956.97 2086.52 2965.31 2085.94 2975.02C2082.82 3027.04 2045.38 3074.06 1992.78 3092.03C1961.83 3102.6 1925.54 3104.35 1904.96 3104.35Z" fill="#000072"/>
<path d="M644.386 3038.22C639.254 3038.22 634.166 3035.98 630.687 3031.68C584.513 2974.58 490.907 2934.6 489.967 2934.2C481.014 2930.42 476.818 2920.09 480.597 2911.13C484.376 2902.18 494.694 2897.99 503.651 2901.75C507.816 2903.51 606.28 2945.5 658.065 3009.54C664.181 3017.1 663.006 3028.19 655.445 3034.3C652.189 3036.93 648.276 3038.22 644.386 3038.22Z" fill="#000072"/>
<path d="M1111.12 3062.99C1107.17 3062.99 1103.19 3061.67 1099.91 3058.96C1092.44 3052.76 1091.37 3041.7 1097.54 3034.21C1099.53 3031.8 1147.09 2974.98 1216.59 2968.33C1256.09 2964.57 1294.2 2977.57 1329.84 3007.04C1337.34 3013.23 1338.39 3024.33 1332.2 3031.83C1326 3039.32 1314.91 3040.38 1307.41 3034.18C1211.31 2954.76 1128.18 3052.45 1124.69 3056.64C1121.2 3060.83 1116.18 3062.99 1111.12 3062.99Z" fill="#000072"/>
<path d="M266.373 2428.76C266.956 2439.52 271.99 2467.86 306.55 2496.34C346.881 2495.78 1012.98 2486.44 1081.43 2483.53L1073.23 2410.75C966.323 2413.06 329.379 2427.34 266.373 2428.76Z" fill="#528CFF"/>
<path d="M1128.37 2394.91C1056.21 2199.17 936.77 1890.98 916.545 1879.24C895.766 1871.86 394.932 1875.4 61.9857 1879.62C45.7777 1896.6 21.9187 1925.99 22.7317 1937.4C25.4227 1953.51 168.147 2232.9 264.37 2418.59C327.349 2417.18 1083.28 2400.22 1088.43 2400.22C1090.11 2400.1 1104.87 2398.13 1128.37 2394.91ZM499.692 2125.94C441.687 2125.94 394.493 2094.41 394.493 2055.64C394.493 2016.88 441.687 1985.34 499.692 1985.34C557.702 1985.34 604.896 2016.88 604.896 2055.64C604.896 2094.41 557.702 2125.94 499.692 2125.94ZM936.553 2068.8L911.765 2004.27L899.093 1972.16L892.514 1956.26C891.37 1953.66 890.281 1950.98 889.078 1948.46C887.939 1945.89 886.651 1943.29 885.517 1941.27C885.475 1941.23 885.447 1941.17 885.415 1941.11L885.218 1941.07C884.166 1940.88 882.684 1940.73 881.36 1940.61C878.599 1940.36 875.763 1940.19 872.922 1940.04C867.233 1939.75 861.489 1939.59 855.754 1939.42L821.247 1938.81L752.123 1938.48C659.928 1937.77 567.695 1938.41 475.465 1938.25L337.112 1938.06L198.742 1937.1C244.842 1935.39 290.952 1934.39 337.062 1933.08L475.405 1930.43C521.523 1929.47 567.645 1929.29 613.768 1928.87L752.161 1928.28C775.23 1928.42 798.301 1928.66 821.387 1929.06L856.041 1929.9C861.83 1930.11 867.609 1930.31 873.433 1930.65C876.349 1930.83 879.264 1931.02 882.245 1931.3C883.788 1931.47 885.183 1931.59 886.963 1931.92L888.291 1932.18C888.954 1932.34 890.19 1932.86 890.985 1933.38C891.997 1934.32 892.65 1935.29 893.385 1936.33C895.072 1939.33 896.286 1941.93 897.479 1944.63C898.737 1947.32 899.802 1950 900.96 1952.68L907.499 1968.79L920.004 2001.11C928.24 2022.68 936.142 2044.35 943.915 2066.07C959.508 2109.5 974.866 2152.99 990.075 2196.54C1004.95 2240.2 1020.06 2283.78 1034.43 2327.62L936.553 2068.8Z" fill="#528CFF"/>
<path d="M499.692 1995.55C447.314 1995.55 404.701 2022.51 404.701 2055.64C404.701 2088.78 447.315 2115.74 499.692 2115.74C552.075 2115.74 594.688 2088.78 594.688 2055.64C594.689 2022.51 552.075 1995.55 499.692 1995.55Z" fill="white"/>
<path d="M1088.43 2410.43C1088.15 2410.43 1086.4 2410.47 1083.48 2410.53L1091.61 2482.69C1160.02 2475.15 1499.59 2433.15 1528.55 2420C1528.05 2408.86 1518.58 2374.56 1511.57 2351.72C1432.25 2362.87 1093.68 2410.43 1088.43 2410.43Z" fill="#528CFF"/>
<g opacity="0.25">
<path d="M689.912 2280.5C498.277 2337.79 280.299 2351.72 280.299 2351.72C280.299 2351.72 292.154 2381.25 290.835 2386.52C289.519 2391.79 1006.01 2364.13 1006.01 2364.13L897.444 2080.96C897.444 2080.96 881.547 2223.2 689.912 2280.5Z" fill="#000072"/>
</g>
<g opacity="0.25">
<path d="M311.25 2458.3C311.25 2458.3 335.154 2495.94 336.92 2495.92H336.955C475.961 2493.95 1019.92 2486.15 1081.43 2483.53L1077.31 2446.92H1054.42L311.25 2458.3Z" fill="#000072"/>
</g>
<g opacity="0.25">
<path d="M1087.44 2445.62L1091.62 2482.69C1126.73 2478.82 1233.28 2465.87 1332.61 2452.4C1420.3 2439.04 1499.52 2427 1501.46 2426.71C1501.49 2426.7 1501.53 2426.69 1501.56 2426.69L1497.94 2390.14L1087.44 2445.62Z" fill="#001364"/>
</g>
<g opacity="0.4">
<path d="M854.546 1985.34C895.375 1991.4 974.341 2168.73 974.341 2168.73L974.316 2168.66L936.554 2068.8L911.766 2004.27L899.094 1972.16L892.515 1956.26C891.371 1953.66 890.282 1950.98 889.079 1948.46C887.94 1945.89 886.652 1943.29 885.518 1941.27C885.476 1941.23 885.448 1941.17 885.416 1941.11L885.219 1941.07C884.167 1940.88 882.685 1940.73 881.361 1940.61C878.6 1940.36 875.764 1940.19 872.923 1940.04C867.234 1939.75 861.49 1939.59 855.755 1939.42L821.248 1938.81L752.124 1938.48C659.929 1937.77 567.696 1938.41 475.466 1938.25L337.113 1938.06L198.743 1937.1C244.843 1935.39 290.953 1934.39 337.063 1933.08L475.406 1930.43C521.524 1929.47 567.646 1929.29 613.769 1928.87L752.162 1928.28C775.231 1928.42 798.302 1928.66 821.388 1929.06L856.042 1929.9C861.831 1930.11 867.61 1930.31 873.434 1930.65C876.35 1930.83 879.265 1931.02 882.246 1931.3C883.789 1931.47 885.184 1931.59 886.964 1931.92L888.292 1932.18C888.955 1932.34 890.191 1932.86 890.986 1933.38C891.998 1934.32 892.651 1935.29 893.386 1936.33C895.073 1939.33 896.287 1941.93 897.48 1944.63C898.738 1947.32 899.803 1950 900.961 1952.68L902.8 1957.21L917.109 1950.57L1101.54 2398.55C1108.28 2397.65 1117.34 2396.42 1128.37 2394.91C1056.21 2199.17 936.772 1890.97 916.547 1879.24C895.768 1871.86 394.934 1875.4 61.9876 1879.62C45.7796 1896.6 21.9206 1925.99 22.7336 1937.4C23.3636 1941.18 31.6876 1959.41 45.3016 1987.52C45.2986 1987.52 813.716 1979.29 854.546 1985.34Z" fill="white"/>
</g>
<path d="M304.765 2519.08C300.749 2519.08 296.852 2517.71 293.72 2515.19C239.506 2471.51 243.586 2424.01 243.786 2422.01C244.67 2413.16 252.016 2406.36 260.907 2406.16C343.61 2404.31 1058.08 2388.28 1087.52 2387.73C1104.06 2385.97 1399.35 2344.57 1512.71 2328.62C1521.23 2327.46 1529.4 2332.58 1531.97 2340.81C1539.74 2365.7 1552.58 2409.63 1551.12 2424.2C1549.54 2439.99 1539.64 2443.77 1469.66 2455.29C1433.81 2461.2 1383.99 2468.43 1321.58 2476.78C1214.99 2491.03 1102.84 2504.35 1088.95 2505.81C1063.86 2508.45 382.606 2518 305.008 2519.08C304.928 2519.08 304.848 2519.08 304.765 2519.08ZM281.301 2440.93C284.692 2451.92 292.622 2467.56 311.072 2483.78C525.549 2480.79 1063.87 2472.89 1085.28 2470.79C1132.7 2465.81 1451.03 2426.71 1514.65 2411.13C1512.39 2400.26 1507.73 2382.72 1502.69 2365.59C1094.8 2422.94 1090.02 2422.94 1088.43 2422.94C1079.26 2423.04 405.739 2438.14 281.301 2440.93Z" fill="#000072"/>
<path d="M261.318 2441.37C254.951 2441.37 248.806 2437.91 245.673 2431.87C245.065 2430.7 184.364 2313.56 124.281 2195.67C1.15778 1954.1 0.535759 1945.39 0.0787587 1939.02C-1.55424 1916.13 28.8728 1881.11 47.1538 1862.28C50.4158 1858.92 54.8828 1857 59.5658 1856.94C310.455 1853.76 897 1847.51 924.791 1858.09C935.741 1862.26 949.369 1867.45 1053.71 2134.36C1103.94 2262.86 1151.4 2391.72 1151.87 2393.01C1155.23 2402.14 1150.56 2412.26 1141.43 2415.62C1132.3 2418.97 1122.18 2414.3 1118.83 2405.17C1034.79 2176.83 934.826 1923.53 910.29 1890.89C857.697 1884.64 385.053 1888.06 67.4648 1892.05C51.7128 1909.16 37.6188 1928.48 35.4508 1936.11C47.3138 1969 185.178 2238.63 276.933 2415.67C281.408 2424.3 278.037 2434.92 269.404 2439.4C266.816 2440.74 264.045 2441.37 261.318 2441.37Z" fill="#000072"/>
<path d="M198.741 1937.1C405.98 1919.43 613.683 1913.94 821.567 1916.55C841.369 1917.51 869.785 1917.07 889.229 1920.03C893.668 1920.74 898.514 1923.06 901.263 1926.76C909.336 1937.82 913.002 1952.35 918.311 1964.45C962.374 2083.77 1000.92 2204.83 1034.43 2327.62C979.978 2206.84 924.346 2062.51 877.049 1949.67C878.76 1951.05 881.017 1952.54 883.055 1952.94C881.266 1952.81 874.207 1952.32 872.257 1952.24C647.91 1949.09 422.877 1952.02 198.741 1937.1Z" fill="#000072"/>
<path d="M1087.09 2505.91C1078.25 2505.91 1070.63 2499.26 1069.62 2490.27L1060.29 2407.51C1059.2 2397.85 1066.15 2389.14 1075.81 2388.05C1085.47 2386.99 1094.19 2393.91 1095.28 2403.57L1104.61 2486.33C1105.69 2495.99 1098.74 2504.71 1089.08 2505.8C1088.41 2505.87 1087.75 2505.91 1087.09 2505.91Z" fill="#000072"/>
<path d="M499.694 2138.44C433.693 2138.44 381.991 2102.07 381.991 2055.64C381.991 2009.21 433.693 1972.84 499.694 1972.84C565.695 1972.84 617.397 2009.21 617.397 2055.64C617.397 2102.07 565.695 2138.44 499.694 2138.44ZM499.694 2008.05C455.749 2008.05 417.201 2030.29 417.201 2055.64C417.201 2080.99 455.748 2103.23 499.694 2103.23C543.639 2103.23 582.187 2080.99 582.187 2055.64C582.187 2030.29 543.639 2008.05 499.694 2008.05Z" fill="#000072"/>
<path d="M1537.52 395.239C1552.83 359.64 1644.77 155.397 1737.32 159.331C1753.07 159.974 1768.12 169.648 1782.06 188.089C1851.25 279.641 1882.08 578.543 1857.52 685.859C1861.13 692.295 1864.66 698.786 1868.08 705.371C1889.29 746.256 1907.61 785.784 1923.5 823.88C1981.55 570.594 1922.45 258.596 1832.17 110.253C1802.73 61.9028 1770.83 32.4818 1739.89 25.1798C1612.97 -4.87219 1401.31 295.241 1368.25 343.477C1375.72 344.848 1383.18 346.31 1390.62 347.899C1442.26 358.916 1491.36 374.833 1537.52 395.239Z" fill="#FAA327"/>
<path d="M1928.85 1565.74C1975.11 1512.74 2004.16 1416.52 2009.31 1302.76C1940.67 1181.7 1848.7 1122.81 1728.23 1122.81C1727.69 1122.81 1727.16 1122.81 1726.61 1122.81C1624.62 1123.26 1525.39 1166.07 1452.93 1197.34C1420.56 1211.31 1394.99 1222.34 1376.67 1226.37C1313.19 1240.34 1248.1 1214.32 1172.71 1184.21C1137.34 1170.08 1100.96 1155.61 1061.93 1144.01C1062.46 1146.86 1062.52 1150.2 1061.77 1154.2C1055.01 1190.26 988.7 1253.73 954.266 1257.09C951.759 1257.33 949.147 1257.45 946.456 1257.45C944.133 1257.45 941.736 1257.34 939.299 1257.17L945.783 1337.31C951.108 1341.03 956.97 1344.61 962.908 1347.67C969.507 1351.25 976.348 1354.39 983.308 1357.21C997.296 1362.65 1011.87 1366.62 1026.76 1368.31C1030.49 1368.58 1034.21 1369.41 1037.96 1369.31L1049.23 1369.44C1052.97 1369.25 1056.7 1368.75 1060.46 1368.49C1062.34 1368.28 1064.24 1368.24 1066.09 1367.91L1071.63 1366.74C1086.69 1364.37 1100.71 1358.07 1114.79 1351.63C1102.06 1360.26 1088.27 1368.26 1072.93 1372.13L1067.25 1373.81C1065.35 1374.32 1063.38 1374.53 1061.44 1374.91C1057.55 1375.55 1053.65 1376.34 1049.71 1376.75L1037.83 1377.32C1033.86 1377.62 1029.92 1377.06 1025.95 1376.93C1010.14 1375.68 994.473 1372.21 979.7 1366.48C966.071 1361.24 953.26 1354.62 941.116 1346.08C932.84 1352.64 923.936 1358.62 913.743 1361.94C902.569 1366.13 890.425 1367.78 878.68 1366.73C866.93 1365.79 855.514 1362.74 844.955 1358.07C834.416 1353.39 824.485 1347.4 815.89 1339.93C825.552 1345.91 835.921 1350.52 846.502 1354.01C857.126 1357.41 868.091 1359.45 878.986 1359.53C881.705 1359.43 884.434 1359.61 887.122 1359.3L895.149 1358.21C897.805 1357.77 900.35 1356.81 902.956 1356.21C904.244 1355.84 905.568 1355.58 906.826 1355.13L910.532 1353.55C919.887 1350.2 927.867 1344.09 935.582 1337.85L928.953 1255.93C890.605 1249.81 843.85 1225.17 823.926 1191.38C818.837 1182.76 818.02 1174.09 821.494 1165.62C822.969 1162.02 825.205 1158.65 827.958 1155.49C798.826 1169.64 775.149 1186.36 756.192 1199.78C694.474 1243.43 624.109 1225.73 569.703 1205.42C512.04 1183.95 454.299 1243.25 445.914 1252.32C434.667 1340.03 432.402 1398.41 432.367 1399.38C432.367 1399.43 432.362 1399.49 432.362 1399.55C425.788 1494.54 528.111 1667.14 953.312 1711.54C1418.38 1760.07 1833.19 1675.34 1928.85 1565.74Z" fill="white"/>
<path d="M573.274 1216.89C651.634 1246.12 704.574 1244.81 750.303 1212.47C782.166 1189.93 826.975 1158.28 888.337 1144.08C889.346 1143.79 890.049 1122.57 890.341 1122.5C930.067 1110.6 1014.78 1133.31 1051.23 1151.3C1095.94 1163.59 1136.82 1179.9 1176.5 1195.75C1250.32 1225.24 1314.08 1250.71 1374.47 1237.43C1391.84 1233.6 1418.28 1222.2 1448.89 1208.99C1588.94 1148.56 1847.39 1037.08 2009.94 1304.71C2010.14 1295.18 2010.2 1264.53 2010.07 1254.79C2008.5 1136.08 1981.02 945.208 1859.02 710.075C1788.32 573.818 1677.3 469.612 1538.8 406.983C1538.59 406.927 1538.39 406.946 1538.19 406.864C1537.88 406.737 1537.66 406.507 1537.39 406.331C1490.71 385.345 1440.92 369.067 1388.49 357.88C1334.01 346.252 1278.93 340.56 1224.39 340.56C1179.05 340.56 1134.09 344.523 1090.14 352.247C1089.87 352.416 1089.66 352.64 1089.36 352.761C1088.34 353.163 1087.31 353.131 1086.32 352.901C970.43 373.875 861.76 421.248 772.231 492.425C609.117 622.106 525.4 861.57 483.898 1039.62C467.231 1111.13 455.863 1199.71 448.14 1256.58C469.798 1236.17 520.324 1197.11 573.274 1216.89Z" fill="#FAA327"/>
<path d="M736.327 214.973C736.123 214.968 735.918 214.963 735.714 214.963C668.115 214.963 654.045 499.424 648.737 606.716C648.642 608.608 648.553 610.454 648.46 612.276C682.185 563.864 721.041 520.078 765.877 484.432C807.791 451.113 853.831 422.935 902.814 400.156C902.42 399.769 902.046 399.356 901.787 398.836C900.886 397.016 810.405 216.847 736.327 214.973Z" fill="#F85189"/>
<path d="M637.413 628.579C637.769 621.828 638.141 614.342 638.539 606.207C648.861 397.629 667.8 204.755 735.669 204.755C735.978 204.755 736.277 204.76 736.586 204.765C816.77 206.794 907.121 386.634 910.929 394.289C911.25 394.933 911.412 395.611 911.45 396.286C964.77 372.343 1021.42 354.694 1079.95 343.737C1053.07 287.78 937.856 153.779 837.893 103.797C791.835 80.771 756.483 76.066 726.629 89.014C679.968 109.244 641.641 174.476 606.02 294.298C552.399 474.641 549.084 719.531 549.503 797.3C573.602 738.946 602.62 681.338 637.413 628.579Z" fill="#FAA327"/>
<path d="M1047.65 1139.9C1042.02 1138.36 1036.35 1136.86 1030.6 1135.47C975.71 1122.13 928.964 1124.02 889.319 1133.41C872.605 1138.41 838.143 1151.92 830.936 1169.5C828.713 1174.92 829.296 1180.39 832.72 1186.2C855.118 1224.18 917.011 1250.44 953.28 1246.93C983.249 1244 1045.82 1183.88 1051.74 1152.31C1053.24 1144.32 1050.45 1141.43 1047.65 1139.9Z" fill="#000072"/>
<path d="M1736.9 169.528C1736.18 169.498 1735.44 169.483 1734.71 169.483C1650.39 169.483 1561.18 366.478 1546.84 399.457C1674.28 457.984 1778.55 551.38 1849.81 672.396C1869.73 558.597 1839.49 281.022 1773.92 194.243C1761.91 178.355 1749.46 170.042 1736.9 169.528Z" fill="#F85189"/>
<g opacity="0.25">
<path d="M901.789 398.835C900.887 397.016 810.406 216.847 736.328 214.973C736.124 214.968 735.919 214.963 735.715 214.963C699.72 214.963 678.904 295.617 666.506 387.23C666.506 387.223 666.511 387.214 666.511 387.206C666.511 387.206 694.985 268.914 744.357 265.211C780.693 262.486 854.146 397.076 865.734 418.755C877.89 412.207 890.253 405.997 902.815 400.155C902.421 399.769 902.048 399.356 901.789 398.835Z" fill="#001364"/>
</g>
<path d="M808.909 195.571C740.408 139.266 682.62 162.973 654.961 229.65C627.302 296.327 575.232 498.828 582.746 724.049L583.079 723.534C599.412 690.81 617.432 658.88 637.415 628.579C637.771 621.828 638.143 614.342 638.541 606.207C648.863 397.629 667.802 204.755 735.671 204.755C735.98 204.755 736.279 204.76 736.588 204.765C816.772 206.794 907.123 386.634 910.931 394.289C911.22 394.867 911.342 395.475 911.4 396.082L913.087 395.581C924.979 390.275 937.043 385.296 949.249 380.62C936.917 359.104 870.726 246.383 808.909 195.571Z" fill="#EF7F25"/>
<g opacity="0.25">
<path d="M1745.67 239.035C1790.97 264.274 1832.42 359.746 1833.85 363.042C1819.89 291.701 1799.64 228.279 1773.92 194.244C1761.91 178.355 1749.46 170.041 1736.9 169.528C1736.18 169.498 1735.44 169.483 1734.71 169.483C1650.39 169.483 1561.18 366.478 1546.84 399.457C1574.27 412.051 1600.54 426.354 1625.72 442.104C1637.66 406.446 1703.86 215.739 1745.67 239.035Z" fill="#001364"/>
</g>
<path d="M1920.84 645.025C1914.45 483.303 1894.5 328.596 1855.87 233.767C1817.24 138.937 1760.16 85.5958 1670.59 145.523C1581.03 205.45 1479.91 372.65 1479.91 372.65L1480.15 372.775C1499.73 379.526 1518.88 386.997 1537.53 395.24C1552.83 359.641 1644.77 155.398 1737.32 159.332C1753.07 159.975 1768.13 169.649 1782.06 188.09C1848.54 276.053 1879.59 555.397 1860.15 672.348L1860.15 672.398C1860.15 672.398 1859.17 680.753 1858.43 687.53C1861.71 693.424 1864.95 699.351 1868.08 705.372C1887.74 743.27 1904.82 779.947 1919.88 815.455C1922.19 799.95 1925.28 757.424 1920.84 645.025Z" fill="#EF7F25"/>
<g opacity="0.25">
<path d="M1772.67 1578.51C1585.13 1638.72 1082.15 1676.28 797.699 1610.12C440.997 1527.14 448.136 1283.69 448.136 1283.69C443.782 1300.13 440.224 1315.41 437.36 1329.8C433.4 1372.79 432.391 1398.73 432.368 1399.38C432.368 1399.43 432.363 1399.49 432.363 1399.55C425.789 1494.54 528.112 1667.14 953.313 1711.53C1418.38 1760.07 1833.19 1675.34 1928.85 1565.74C1956.17 1534.43 1977.43 1487.96 1991.37 1431.79C1973.2 1461.72 1917.12 1532.12 1772.67 1578.51Z" fill="#000072"/>
</g>
<g opacity="0.25">
<path d="M897.468 1325.13C885.76 1346.6 823.442 1343.46 821.912 1343.38C829.814 1347.71 838.083 1351.23 846.503 1354.01C857.127 1357.4 868.092 1359.44 878.987 1359.53C881.706 1359.43 884.435 1359.6 887.123 1359.3L895.15 1358.21C897.806 1357.77 900.351 1356.81 902.957 1356.2C904.245 1355.84 905.569 1355.58 906.827 1355.13L910.533 1353.55C919.888 1350.19 927.868 1344.09 935.583 1337.85L928.954 1255.93C921.034 1254.67 912.753 1252.57 904.425 1249.81C905.435 1266.92 906.746 1308.12 897.468 1325.13Z" fill="#001364"/>
</g>
<g opacity="0.25">
<path d="M989.827 1325.13C973.698 1306.25 971.672 1267.03 971.515 1251.83C965.26 1254.72 959.404 1256.59 954.265 1257.09C951.758 1257.33 949.146 1257.45 946.455 1257.45C944.132 1257.45 941.735 1257.34 939.298 1257.16L945.782 1337.31C951.107 1341.03 956.969 1344.61 962.907 1347.67C969.506 1351.25 976.347 1354.39 983.307 1357.2C997.295 1362.65 1011.87 1366.62 1026.76 1368.31C1030.49 1368.58 1034.21 1369.41 1037.96 1369.31L1049.22 1369.44C1052.97 1369.25 1056.7 1368.75 1060.46 1368.48C1062.34 1368.28 1064.24 1368.24 1066.09 1367.91L1071.63 1366.74C1077.28 1365.85 1082.78 1364.41 1088.19 1362.61C1088.19 1362.61 1010.08 1348.84 989.827 1325.13Z" fill="#001364"/>
</g>
<g opacity="0.4">
<path d="M1712.41 59.2528C1796.2 49.1638 1870.52 189.257 1873.26 194.482C1860.62 162.75 1846.81 134.319 1832.17 110.253C1802.73 61.9028 1770.83 32.4818 1739.89 25.1798C1612.97 -4.87219 1401.31 295.241 1368.25 343.477C1375.72 344.848 1383.18 346.31 1390.62 347.899C1396.96 349.251 1403.25 350.68 1409.51 352.178L1409.52 352.177C1409.52 352.177 1627.04 69.5338 1712.41 59.2528Z" fill="white"/>
</g>
<g opacity="0.4">
<path d="M1372.11 319.936L1372.11 319.94C1372.11 319.934 1372.12 319.928 1372.12 319.922L1372.11 319.936Z" fill="white"/>
</g>
<g opacity="0.4">
<path d="M1729.2 521.496C1700.4 491.396 1666.14 465.893 1629.17 444.276C1665.5 467.304 1699.36 493.557 1730.45 522.827C1730.03 522.385 1729.63 521.937 1729.2 521.496Z" fill="white"/>
</g>
<g opacity="0.4">
<path d="M1257.92 331.151C1257.87 331.146 1257.82 331.138 1257.78 331.133C1239.25 328.93 1216.02 329.046 1189.82 331.189C1212.42 330.202 1235.14 330.191 1257.92 331.151Z" fill="white"/>
</g>
<g opacity="0.4">
<path d="M794.737 118.522C860.061 132.931 965.598 247.253 1037.18 353.03C1051.31 349.536 1065.57 346.431 1079.95 343.738C1053.07 287.781 937.857 153.78 837.894 103.798C791.836 80.7719 756.484 76.067 726.63 89.015C703.3 99.13 682.052 120.495 662.186 154.309V154.31C662.186 154.31 727.566 103.705 794.737 118.522Z" fill="white"/>
</g>
<g opacity="0.4">
<path d="M853.035 501.387C873.686 519.642 919.555 523.59 967.98 509.04C1027.85 491.05 1068.92 451.617 1059.71 420.964C1058.71 417.619 1057.05 414.564 1054.99 411.715C1335.75 347.768 1718.67 492.755 1886.74 766.229C1878.07 747.8 1868.88 729.1 1859.01 710.077C1788.31 573.82 1677.3 469.614 1538.79 406.985C1538.59 406.929 1538.38 406.948 1538.18 406.866C1537.88 406.739 1537.66 406.509 1537.39 406.333C1490.71 385.347 1440.91 369.069 1388.49 357.882C1334.01 346.254 1278.93 340.562 1224.39 340.562C1179.05 340.562 1134.09 344.525 1090.14 352.249C1089.87 352.418 1089.66 352.642 1089.35 352.763C1088.34 353.165 1087.3 353.133 1086.32 352.903C970.428 373.877 861.758 421.25 772.229 492.427C659.178 582.307 584.287 724.918 535.137 863.274C537.429 858.724 649.715 637.333 853.035 501.387Z" fill="white"/>
</g>
<g opacity="0.4">
<path d="M1146.94 566.548C1169.7 563.534 1186.46 548.376 1184.39 532.692C1182.31 517.008 1162.18 506.737 1139.42 509.751C1116.66 512.765 1099.9 527.923 1101.98 543.607C1104.05 559.291 1124.19 569.562 1146.94 566.548Z" fill="white"/>
</g>
<g opacity="0.4">
<path d="M938.973 1164.23C994.936 1158.63 1039.51 1146.13 1038.52 1136.31C1037.54 1126.49 991.376 1123.06 935.413 1128.67C879.45 1134.27 834.88 1146.77 835.863 1156.59C836.846 1166.41 883.01 1169.84 938.973 1164.23Z" fill="white"/>
</g>
<path d="M1226.09 1748.59C1138.52 1748.6 1046.29 1744.07 950.958 1734.12C408.014 1677.44 407.735 1428.04 409.686 1398.26C410.008 1390.23 417.099 1226.22 461.738 1034.65C523.291 770.465 623.003 582.054 758.098 474.649C928.549 339.136 1165.97 287.183 1393.23 335.67C1608.67 381.644 1781.25 510.895 1879.17 699.618C2106.18 1137.11 2040.61 1472.22 1945.96 1580.67C1866.33 1671.91 1586.3 1748.58 1226.09 1748.59ZM1224.34 353.058C1060.78 353.058 902.215 405.055 780.011 502.213C472.008 747.081 445.099 1393.33 444.865 1399.83C444.858 1400.02 444.845 1400.22 444.833 1400.41C443.949 1413.2 443.432 1480.51 520.392 1550.08C606.432 1627.86 752.526 1678 954.616 1699.1C1173.4 1721.94 1396.91 1716.93 1584 1685.01C1748.92 1656.87 1874.32 1609.21 1919.43 1557.52C2014.54 1448.54 2055.22 1115.37 1847.92 715.834C1754.93 536.625 1590.85 413.844 1385.88 370.106C1332.25 358.663 1278.01 353.058 1224.34 353.058Z" fill="#000072"/>
<path d="M544.713 839.828C535.221 839.828 527.396 832.272 527.125 822.721C526.761 809.945 519 507.296 584.249 287.828C622.447 159.342 663.573 91.5998 717.594 68.1798C754.076 52.3688 795.531 57.2298 848.048 83.4878C956.271 137.597 1082.08 287.226 1103.8 341.481C1107.41 350.509 1103.02 360.756 1094 364.369C1084.96 367.975 1074.72 363.593 1071.11 354.567C1050.79 303.793 930.08 163.869 832.301 114.982C789.222 93.4438 758.17 88.9708 731.598 100.487C689.176 118.878 652.018 183.441 617.999 297.863C554.378 511.86 562.235 818.652 562.32 821.725C562.596 831.444 554.94 839.545 545.22 839.821C545.052 839.825 544.881 839.828 544.713 839.828Z" fill="#000072"/>
<path d="M1924.87 858.107C1923.46 858.107 1922.02 857.934 1920.58 857.575C1911.15 855.212 1905.42 845.651 1907.78 836.22C1971.11 583.449 1912.29 265.954 1821.49 116.755C1793.84 71.3229 1764.63 43.8639 1737.01 37.3429C1630.17 12.1399 1438.94 259.45 1374.26 356.882C1368.89 364.98 1357.96 367.192 1349.86 361.814C1341.76 356.438 1339.55 345.513 1344.93 337.412C1345.53 336.499 1406.35 245.195 1483.92 159.285C1591.52 40.1099 1679.4 -12.4631 1745.1 3.07687C1782.62 11.9339 1818.44 44.0219 1851.57 98.4479C1946.05 253.699 2007.47 583.184 1941.94 844.776C1939.94 852.77 1932.76 858.107 1924.87 858.107Z" fill="#000072"/>
<path d="M1852.14 704.22C1850.78 704.22 1849.39 704.061 1848.01 703.729C1838.56 701.458 1832.73 691.952 1835 682.498C1858.9 583.018 1829.07 287.967 1763.94 201.778C1757.31 193.006 1747.15 182.459 1736.39 182.02C1735.85 181.998 1735.3 181.988 1734.75 181.988C1673.44 181.988 1593.02 320.628 1556.4 408.895C1552.68 417.872 1542.37 422.137 1533.4 418.414C1524.42 414.688 1520.15 404.393 1523.87 395.411C1534.61 369.51 1631.65 142.411 1737.83 146.839C1757.5 147.642 1775.74 158.983 1792.03 180.55C1865.7 278.021 1895.25 582.449 1869.24 690.721C1867.3 698.795 1860.09 704.22 1852.14 704.22Z" fill="#000072"/>
<path d="M642.487 647.201C642.174 647.201 641.862 647.194 641.544 647.177C631.835 646.664 624.379 638.378 624.891 628.669C625.257 621.738 625.638 613.999 626.056 605.581C638.334 357.539 661.713 192.253 735.634 192.253C736.054 192.253 736.476 192.26 736.903 192.27C823.051 194.45 912.238 368.847 922.123 388.725C926.452 397.429 922.904 407.995 914.201 412.326C905.49 416.65 894.928 413.11 890.597 404.406C856.869 336.657 785.077 228.713 736.012 227.47C735.956 227.468 735.9 227.468 735.841 227.468C730.111 227.468 702.789 234.572 682.342 363.41C669.195 446.242 664.205 547.074 661.224 607.321C660.804 615.78 660.421 623.559 660.052 630.524C659.557 639.918 651.786 647.201 642.487 647.201Z" fill="#000072"/>
<path d="M946.49 1269.95C901.908 1269.95 838.732 1241.1 813.156 1197.73C806.078 1185.73 804.96 1172.98 809.926 1160.87C822.948 1129.13 875.718 1113.46 886.937 1110.46C929.422 1097.82 1018.03 1099.47 1057.46 1119.38C1070.93 1126.19 1077.14 1140.07 1074.06 1156.5C1066.27 1198.03 995.349 1265.64 955.483 1269.53C952.59 1269.81 949.581 1269.95 946.49 1269.95ZM896.264 1144.42C876.696 1149.65 847.127 1162.93 842.501 1174.24C842.101 1175.22 841.551 1176.56 843.485 1179.84C863.08 1213.07 919.564 1237.66 952.064 1234.49C965.809 1233.15 998.695 1209.68 1022.14 1180.29C1034.89 1164.3 1038.76 1154.07 1039.51 1149.83C1009.5 1136.28 933.774 1133.16 896.796 1144.27C896.62 1144.32 896.442 1144.37 896.264 1144.42Z" fill="#000072"/>
<path d="M815.891 1339.92C844.268 1350.28 875.289 1356.32 903.47 1344.79L906.561 1343.18C915.009 1339.55 922.144 1333.28 929.298 1327.18C935.476 1321.9 944.213 1321.58 950.677 1325.82C976.648 1343.15 1007.1 1355.38 1038.12 1359.41C1064.47 1362.82 1088.44 1358.82 1114.79 1351.63C1066.78 1403.32 982.534 1394.46 930.28 1353.5L952.454 1352.67C911.326 1389.34 849.856 1382 815.891 1339.92Z" fill="#000072"/>
<path d="M940.855 1357.53C931.775 1357.53 924.073 1350.55 923.326 1341.34L916.177 1253.02C915.393 1243.32 922.615 1234.83 932.305 1234.05C941.997 1233.24 950.489 1240.48 951.275 1250.17L958.423 1338.5C959.207 1348.19 951.985 1356.69 942.295 1357.47C941.812 1357.51 941.331 1357.53 940.855 1357.53Z" fill="#000072"/>
<path d="M901.418 1521.68C950.992 1519.03 991.958 1529.1 1041.03 1534.85C1006.89 1577.99 930.112 1564.99 901.418 1521.68Z" fill="#000072"/>
<path d="M724.99 1110.75C760.451 1110.75 789.198 1069.18 789.198 1017.9C789.198 966.616 760.451 925.044 724.99 925.044C689.529 925.044 660.782 966.616 660.782 1017.9C660.782 1069.18 689.529 1110.75 724.99 1110.75Z" fill="#001364"/>
<path d="M748.638 1026.46C758.459 1026.46 766.419 1012.9 766.419 996.166C766.419 979.436 758.459 965.873 748.638 965.873C738.818 965.873 730.857 979.436 730.857 996.166C730.857 1012.9 738.818 1026.46 748.638 1026.46Z" fill="white"/>
<path d="M1267.63 1100.21C1307.36 1100.21 1339.58 1053.63 1339.58 996.166C1339.58 938.701 1307.36 892.117 1267.63 892.117C1227.89 892.117 1195.68 938.701 1195.68 996.166C1195.68 1053.63 1227.89 1100.21 1267.63 1100.21Z" fill="#001364"/>
<path d="M1247.67 1005.76C1258.67 1005.76 1267.59 990.561 1267.59 971.814C1267.59 953.067 1258.67 937.869 1247.67 937.869C1236.66 937.869 1227.74 953.067 1227.74 971.814C1227.74 990.561 1236.66 1005.76 1247.67 1005.76Z" fill="white"/>
<path d="M845.681 798.628C848.631 775.037 815.546 751.476 771.783 746.003C728.021 740.53 690.153 755.217 687.202 778.808C684.252 802.399 717.337 825.959 761.099 831.432C804.862 836.905 842.73 822.218 845.681 798.628Z" fill="white"/>
<path d="M779.786 847.35C773.158 847.35 766.297 846.925 759.254 846.044C705.785 839.36 668.541 809.694 672.623 777.043C676.71 744.396 720.126 724.821 773.58 731.501C797.115 734.445 818.834 742.302 834.735 753.627C853.294 766.842 862.342 783.493 860.214 800.504C856.666 828.854 823.47 847.35 779.786 847.35ZM753.529 759.572C723.065 759.572 702.967 770.876 701.739 780.685C700.303 792.164 723.414 811.991 762.896 816.928C802.364 821.86 829.659 808.342 831.097 796.862C831.802 791.225 826.8 783.998 817.713 777.529C805.875 769.099 788.463 762.934 769.939 760.617C764.2 759.899 758.712 759.572 753.529 759.572Z" fill="#000072"/>
<path d="M1207.97 820.445C1252.19 813.479 1284.85 787.621 1280.92 762.688C1277 737.755 1237.96 723.19 1193.74 730.156C1149.52 737.122 1116.86 762.981 1120.78 787.914C1124.71 812.846 1163.74 827.411 1207.97 820.445Z" fill="white"/>
<path d="M1186.13 836.893C1170.94 836.893 1156.54 834.539 1144.17 829.923C1122.53 821.847 1109.09 807.75 1106.33 790.233C1103.57 772.716 1112.02 755.17 1130.14 740.829C1145.86 728.38 1167.66 719.454 1191.5 715.7C1215.33 711.943 1238.82 713.739 1257.61 720.751C1279.26 728.827 1292.7 742.924 1295.45 760.443C1298.22 777.96 1289.76 795.504 1271.65 809.845C1255.92 822.296 1234.13 831.22 1210.29 834.974C1202.13 836.259 1194.03 836.893 1186.13 836.893ZM1215.56 743.141C1209.2 743.141 1202.63 743.651 1196.06 744.684C1177.4 747.623 1160.01 754.603 1148.35 763.837C1139.04 771.208 1134.29 779.164 1135.31 785.668C1136.34 792.172 1143.3 798.28 1154.43 802.433C1168.37 807.633 1187.06 808.927 1205.72 805.99C1224.38 803.051 1241.77 796.071 1253.43 786.837C1262.74 779.469 1267.5 771.512 1266.47 765.008C1265.44 758.504 1258.48 752.393 1247.35 748.24C1238.32 744.872 1227.29 743.141 1215.56 743.141Z" fill="#000072"/>
<path d="M747.574 1120.29C810.802 1081.84 840.926 995.742 837.163 934.248C834.721 894.306 819.006 865.822 792.91 854.034C716.195 819.395 478.156 829.787 458.688 830.714C434.012 845.547 417.131 871.848 409.839 906.871C396.576 970.562 416.542 1046.66 443.511 1083.44C484.813 1139.76 650.644 1179.23 747.574 1120.29Z" fill="#000072"/>
<path d="M847.479 953.157C871.099 939.993 945.349 905.639 1020.82 943.597C1018.51 928.825 1017.86 913.79 1019.03 898.616C921.896 856.053 857.198 900.664 844.367 910.815C845.852 917.986 846.864 925.594 847.355 933.625C847.739 939.911 847.774 946.449 847.479 953.157Z" fill="#898786"/>
<path d="M1032.8 952.087C1041.2 991.443 1062.44 1028.53 1095.5 1060.22C1164.13 1125.98 1271.18 1154.81 1374.9 1135.44C1604.87 1092.51 1618.37 945.07 1617.03 900.906C1615.98 866.082 1605.62 840.24 1585.38 821.894C1549.48 789.358 1478.46 777.172 1368.28 784.673C1190.27 796.779 1048.63 878.344 1030.22 889.363C1027.47 910.508 1028.42 931.46 1032.74 951.818C1032.77 951.907 1032.78 951.995 1032.8 952.087Z" fill="#000072"/>
<path d="M1772.74 852.186C1819.31 850.357 1868.86 855.6 1884.51 908.182C1887.96 919.77 1890.41 931.034 1892.56 940.972C1899.61 973.423 1903.89 988.859 1924.48 986.556C1930.91 985.818 1936 975.452 1937.75 959.493C1942.91 912.478 1919.67 833.865 1864.13 814.696C1793.48 790.308 1639.85 816.633 1601.32 823.844C1612.06 836.508 1619.35 851.759 1623.42 869.796C1644.14 866.607 1728.76 853.91 1772.74 852.186Z" fill="#898786"/>
<g opacity="0.25">
<path d="M747.574 1120.29C788.002 1095.71 814.827 1051.64 827.982 1006.98C775.365 1089.46 619.613 1115.85 533.443 1096.16C441.248 1075.08 413.589 978.938 413.589 978.938C411.286 980.666 409.549 982.889 408.184 985.41C413.612 1024.81 427.258 1061.28 443.511 1083.44C484.813 1139.76 650.644 1179.23 747.574 1120.29Z" fill="#001364"/>
</g>
<g opacity="0.25">
<path d="M1323.75 1141C1340.77 1140.37 1357.88 1138.62 1374.9 1135.44C1547.01 1103.31 1597.87 1012.65 1612.01 950.55C1586.54 983.503 1488.37 1094.8 1322.9 1096.16C1128.66 1097.75 1040.69 978.943 1040.69 978.937C1051.67 1008.27 1070.07 1035.85 1095.5 1060.21C1133.74 1096.86 1183.93 1122 1238.81 1133.76C1264.92 1138.72 1293.31 1141.29 1323.75 1141Z" fill="#001364"/>
</g>
<g opacity="0.25">
<path d="M1906.83 905.84C1897.94 880.651 1876.21 845.09 1826.32 834.224C1780.57 824.258 1639.76 845.44 1616.74 849.019C1619.51 855.494 1621.75 862.398 1623.42 869.797C1644.14 866.608 1728.76 853.911 1772.74 852.187C1819.31 850.358 1868.86 855.601 1884.51 908.183C1887.96 919.771 1890.41 931.035 1892.56 940.973C1899.61 973.424 1903.89 988.86 1924.48 986.557C1930.91 985.819 1936 975.453 1937.75 959.494C1939.13 946.935 1938.46 932.116 1935.71 916.783C1928.11 920.267 1913.3 924.176 1906.83 905.84Z" fill="#001364"/>
</g>
<g opacity="0.4">
<path d="M472.528 872.142C478.437 869.602 498.729 867.777 526.329 866.769L470.555 1028.33C470.555 1028.33 512.042 1060.93 569.334 1062.9L628.38 866.406C640.962 866.697 653.545 867.107 665.808 867.641L696.761 872.142L648.358 1062.9H676.017L738.689 873.012C755.907 875.051 769.608 877.551 777.762 880.542C808.464 891.806 825.569 903.674 833.855 910.664C827.62 883.105 813.52 863.346 792.908 854.037C716.193 819.398 478.154 829.79 458.686 830.717C434.01 845.55 417.129 871.851 409.837 906.874C406.318 923.773 405.194 941.543 405.865 959.223C406.611 957.913 450.002 881.824 472.528 872.142Z" fill="white"/>
</g>
<g opacity="0.4">
<path d="M1128.17 1013.57C1128.17 1013.57 1176.94 1049.21 1244.29 1051.37L1320.66 828.775C1333.12 826.581 1345.57 824.728 1357.93 823.388C1357.99 823.382 1358.04 823.377 1358.1 823.372C1380.89 823.365 1397.67 823.145 1398.73 822.52C1399.41 822.115 1402.44 820.965 1406.82 819.39C1408.6 819.291 1410.41 819.18 1412.17 819.093L1337.18 1051.37H1369.7L1458.2 818.08C1533.94 818.531 1581.27 829.729 1596.2 833.861C1592.95 829.595 1589.42 825.551 1585.38 821.893C1549.48 789.357 1478.46 777.171 1368.28 784.672C1190.27 796.778 1048.63 878.343 1030.22 889.362C1028.33 903.899 1028.23 918.339 1029.73 932.563C1029.75 932.549 1095.56 897.195 1182.86 866.242L1128.17 1013.57Z" fill="white"/>
</g>
<path d="M627.67 1171.73C543.693 1171.73 458.048 1141.67 425.199 1096.87C395.294 1056.09 373.056 972.145 387.604 902.253C396.347 860.251 417.338 828.513 448.31 810.463C450.737 809.049 453.466 808.236 456.271 808.092C466.901 807.543 717.677 795.143 802.252 833.339C836.4 848.759 856.849 884.103 859.83 932.86C863.997 1000.98 830.206 1096.62 759.373 1139.69C722.707 1161.99 675.458 1171.73 627.67 1171.73ZM462.533 843.051C442.067 856.427 428.465 878.735 422.076 909.428C409.693 968.915 428.795 1042.23 453.592 1076.04C491.475 1127.7 650.906 1164.43 741.077 1109.61C797.979 1075.01 828.272 993.664 824.685 935.011C823.442 914.691 816.992 878.632 787.759 865.428C716.603 833.29 496.686 841.556 462.533 843.051Z" fill="#000072"/>
<path d="M1310.96 1164.06C1223.06 1164.06 1138.5 1132.88 1079.79 1076.61C1024.3 1023.44 998.156 953.151 1008.07 883.771C1008.8 878.649 1011.75 874.108 1016.13 871.354C1022.36 867.44 1170.96 775.331 1366.74 762.011C1485.04 753.976 1559.35 767.648 1600.64 805.07C1625.69 827.778 1638.48 858.898 1639.73 900.216C1641.21 948.944 1626.77 1111.53 1379.07 1157.76C1356.4 1162 1333.57 1164.06 1310.96 1164.06ZM1041.94 896.984C1036.6 952.97 1058.5 1007.44 1104.15 1051.19C1169.92 1114.22 1272.79 1141.79 1372.61 1123.15C1457.83 1107.24 1521.07 1075.26 1560.56 1028.07C1598.7 982.505 1605.53 933.972 1604.54 901.282C1603.58 869.605 1594.82 847.322 1576.99 831.16C1543.73 801.018 1475.75 789.895 1369.13 797.144C1205.77 808.256 1073.38 878.927 1041.94 896.984Z" fill="#000072"/>
<path d="M838.725 926.447C833.852 926.447 829.006 924.445 825.534 920.514C819.123 913.256 819.74 902.211 826.965 895.758C830.285 892.794 909.663 823.783 1031.73 879.366C1040.58 883.394 1044.49 893.836 1040.46 902.684C1036.43 911.534 1025.99 915.428 1017.14 911.412C916.66 865.665 853.012 919.762 850.351 922.083C847.004 925.009 842.856 926.447 838.725 926.447Z" fill="#000072"/>
<path d="M842.607 979.615C836.97 979.615 831.433 976.915 828.027 971.9C822.563 963.858 824.653 952.908 832.697 947.444C836.86 944.617 935.846 878.843 1036.76 938.015C1045.14 942.934 1047.95 953.721 1043.04 962.109C1038.12 970.498 1027.33 973.313 1018.94 968.391C937.012 920.334 853.32 975.998 852.483 976.57C849.455 978.629 846.01 979.615 842.607 979.615Z" fill="#000072"/>
<path d="M1920.07 1009.53C1884.2 1009.54 1876.57 974.371 1870.37 945.787C1868.2 935.777 1865.96 925.428 1862.75 914.666C1853.58 883.875 1828.57 872.703 1773.63 874.878C1724.87 876.79 1623.31 892.791 1622.29 892.952C1612.68 894.476 1603.67 887.92 1602.14 878.313C1600.63 868.709 1607.18 859.692 1616.78 858.171C1621.03 857.5 1721.42 841.687 1772.25 839.692C1820.54 837.817 1878.28 843.464 1896.5 904.612C1900.08 916.655 1902.58 928.164 1904.78 938.32C1912.07 971.889 1915.07 974.736 1921.1 974.328C1924.87 968.566 1929.55 945.387 1921.69 910.949C1911.89 868.017 1888.85 836.452 1860.05 826.508C1782.6 799.772 1596.82 837.421 1594.95 837.807C1585.44 839.758 1576.12 833.63 1574.17 824.103C1572.21 814.579 1578.34 805.272 1587.87 803.314C1595.88 801.668 1785 763.348 1871.54 793.226C1939 816.517 1966.45 906.187 1960.32 961.966C1955.98 1001.59 1935.62 1008.14 1927.06 1009.12C1924.62 1009.4 1922.29 1009.53 1920.07 1009.53Z" fill="#000072"/>
<path d="M537.262 2614.16C536.709 2613.96 536.198 2613.78 535.712 2613.6C536.198 2613.78 536.709 2613.96 537.262 2614.16Z" fill="white"/>
<path d="M535.172 2613.4C534.758 2613.25 534.365 2613.1 534.006 2612.97C534.367 2613.11 534.755 2613.25 535.172 2613.4Z" fill="white"/>
<path d="M533.499 2612.78C533.187 2612.66 532.884 2612.55 532.622 2612.44C532.886 2612.55 533.183 2612.66 533.499 2612.78Z" fill="white"/>
<path d="M532.156 2612.26C531.964 2612.19 531.762 2612.11 531.61 2612.05C531.765 2612.11 531.959 2612.18 532.156 2612.26Z" fill="white"/>
<path d="M531.237 2611.9C531.14 2611.86 531.009 2611.81 530.939 2611.78C531.014 2611.81 531.127 2611.85 531.237 2611.9Z" fill="white"/>
<path d="M686.735 2588.71C737.956 2581.77 780.956 2546.74 795.435 2533.69C794.961 2535.96 794.391 2538.28 793.755 2540.62C798.071 2524.67 798.577 2510.24 797.496 2501.06C794.658 2476.97 766.694 2466.88 757.284 2464.14C756.855 2468.9 756.332 2473.6 755.649 2478.32C754.562 2485.63 753.167 2492.88 751.427 2500.05C749.62 2507.2 747.45 2514.26 744.813 2521.12C742.052 2527.94 738.787 2534.53 734.805 2540.63C741.342 2527.57 744.559 2513.35 746.41 2499.11C747.277 2491.97 747.803 2484.8 748.022 2477.64C748.201 2471.28 748.134 2464.84 747.788 2458.61C733.92 2446.84 704.746 2425.22 686.733 2425.22C672.03 2425.22 660.828 2430.65 654.381 2434.83C655.233 2442.07 655.428 2449.03 655.223 2456.13C654.937 2464.36 653.957 2472.53 652.275 2480.54C650.693 2488.57 647.959 2496.35 644.652 2503.75C641.382 2511.21 636.722 2517.91 631.748 2524.17C636.047 2517.39 639.882 2510.38 642.282 2502.8C644.722 2495.28 646.543 2487.58 647.236 2479.74C648.023 2471.92 648.126 2464.06 647.568 2456.27C647.187 2451.15 646.524 2445.94 645.597 2440.92C645.582 2440.92 645.569 2440.93 645.555 2440.93C645.425 2440.96 645.296 2440.96 645.166 2440.97C645.054 2440.98 644.947 2441 644.835 2441C644.753 2441.01 644.666 2441.03 644.583 2441.03C644.486 2441.03 644.399 2440.99 644.302 2440.98C644.12 2440.97 643.941 2440.99 643.761 2440.95C643.656 2440.94 643.579 2440.86 643.477 2440.83C642.874 2440.7 642.318 2440.47 641.81 2440.13C641.71 2440.07 641.598 2440.03 641.503 2439.96C640.937 2439.53 640.479 2438.98 640.132 2438.34C640.105 2438.29 640.05 2438.26 640.023 2438.21C639.559 2437.35 627.578 2415.84 581.316 2427.7C534.067 2439.81 527.239 2499.08 527.174 2499.68C526.875 2502.48 524.293 2504.54 521.567 2504.22C518.766 2503.93 516.732 2501.42 517.026 2498.62C517.126 2497.67 518.085 2489.22 521.584 2478.05C511.825 2493.61 498.804 2518.34 488.664 2551.97C538.685 2584.09 629.794 2596.42 686.735 2588.71Z" fill="white"/>
<path d="M539.65 2614.99C538.937 2614.75 538.279 2614.51 537.646 2614.29C538.279 2614.51 538.937 2614.75 539.65 2614.99Z" fill="white"/>
<path d="M793.536 2541.42C791.47 2548.82 788.582 2556.53 784.64 2564.19C788.582 2556.53 791.477 2548.83 793.536 2541.42Z" fill="white"/>
<path d="M539.822 2615.05C563.13 2623.02 628.082 2641.25 698.816 2625.86C745.587 2615.7 771.207 2590.28 784.632 2564.21C741.881 2594.99 701.386 2619.03 672.176 2630.17C612.258 2636.74 560.189 2622 539.822 2615.05Z" fill="white"/>
<g opacity="0.25">
<path d="M539.822 2615.05C539.767 2615.03 539.705 2615.01 539.65 2614.99C539.705 2615.01 539.764 2615.03 539.822 2615.05Z" fill="#001364"/>
</g>
<g opacity="0.25">
<path d="M535.712 2613.6C535.528 2613.53 535.346 2613.47 535.171 2613.4C535.349 2613.47 535.525 2613.53 535.712 2613.6Z" fill="#001364"/>
</g>
<g opacity="0.25">
<path d="M532.622 2612.45C532.453 2612.38 532.303 2612.32 532.156 2612.26C532.308 2612.32 532.445 2612.38 532.622 2612.45Z" fill="#001364"/>
</g>
<g opacity="0.25">
<path d="M537.646 2614.29C537.519 2614.25 537.387 2614.2 537.262 2614.16C537.387 2614.2 537.517 2614.25 537.646 2614.29Z" fill="#001364"/>
</g>
<g opacity="0.25">
<path d="M534.005 2612.97C533.828 2612.9 533.661 2612.84 533.499 2612.78C533.664 2612.84 533.823 2612.9 534.005 2612.97Z" fill="#001364"/>
</g>
<g opacity="0.25">
<path d="M531.61 2612.05C531.46 2611.99 531.351 2611.94 531.236 2611.9C531.354 2611.95 531.456 2611.99 531.61 2612.05Z" fill="#001364"/>
</g>
<g opacity="0.25">
<path d="M793.755 2540.62C793.683 2540.89 793.61 2541.15 793.536 2541.42C793.611 2541.15 793.683 2540.89 793.755 2540.62Z" fill="#001364"/>
</g>
<g opacity="0.25">
<path d="M784.639 2564.19C784.637 2564.2 784.634 2564.2 784.632 2564.21C784.634 2564.2 784.637 2564.2 784.639 2564.19Z" fill="#001364"/>
</g>
<g opacity="0.25">
<path d="M530.94 2611.78C530.81 2611.73 530.706 2611.68 530.683 2611.67C530.706 2611.68 530.793 2611.72 530.94 2611.78Z" fill="#001364"/>
</g>
<path d="M793.536 2541.42C793.611 2541.15 793.683 2540.89 793.755 2540.62C794.39 2538.27 794.961 2535.96 795.435 2533.69C780.956 2546.74 737.956 2581.77 686.735 2588.71C629.794 2596.42 538.686 2584.09 488.665 2551.97C483.992 2567.46 479.935 2584.84 477.092 2604.08C503.988 2612.4 527.459 2611.32 528.331 2611.28C528.343 2611.28 528.353 2611.28 528.366 2611.27H528.381C529.134 2611.23 529.849 2611.38 530.517 2611.65C530.572 2611.67 530.632 2611.65 530.684 2611.67C530.707 2611.68 530.811 2611.73 530.941 2611.78C531.011 2611.81 531.14 2611.86 531.238 2611.9C531.353 2611.94 531.462 2611.99 531.612 2612.05C531.764 2612.11 531.966 2612.19 532.158 2612.26C532.305 2612.32 532.455 2612.38 532.624 2612.45C532.886 2612.55 533.19 2612.66 533.501 2612.78C533.663 2612.84 533.83 2612.9 534.007 2612.97C534.366 2613.11 534.76 2613.25 535.173 2613.4C535.347 2613.47 535.529 2613.53 535.714 2613.6C536.2 2613.78 536.711 2613.96 537.264 2614.16C537.389 2614.2 537.521 2614.25 537.648 2614.29C538.281 2614.52 538.939 2614.75 539.652 2614.99C539.707 2615.01 539.769 2615.03 539.824 2615.05C560.191 2622 612.26 2636.74 672.178 2630.17C701.387 2619.03 741.883 2594.99 784.634 2564.21C784.636 2564.2 784.639 2564.2 784.641 2564.19C788.582 2556.53 791.47 2548.82 793.536 2541.42Z" fill="white"/>
<g opacity="0.25">
<path d="M793.536 2541.42C793.611 2541.15 793.683 2540.89 793.755 2540.62C794.39 2538.27 794.961 2535.96 795.435 2533.69C780.956 2546.74 737.956 2581.77 686.735 2588.71C629.794 2596.42 538.686 2584.09 488.665 2551.97C483.992 2567.46 479.935 2584.84 477.092 2604.08C503.988 2612.4 527.459 2611.32 528.331 2611.28C528.343 2611.28 528.353 2611.28 528.366 2611.27H528.381C529.134 2611.23 529.849 2611.38 530.517 2611.65C530.572 2611.67 530.632 2611.65 530.684 2611.67C530.707 2611.68 530.811 2611.73 530.941 2611.78C531.011 2611.81 531.14 2611.86 531.238 2611.9C531.353 2611.94 531.462 2611.99 531.612 2612.05C531.764 2612.11 531.966 2612.19 532.158 2612.26C532.305 2612.32 532.455 2612.38 532.624 2612.45C532.886 2612.55 533.19 2612.66 533.501 2612.78C533.663 2612.84 533.83 2612.9 534.007 2612.97C534.366 2613.11 534.76 2613.25 535.173 2613.4C535.347 2613.47 535.529 2613.53 535.714 2613.6C536.2 2613.78 536.711 2613.96 537.264 2614.16C537.389 2614.2 537.521 2614.25 537.648 2614.29C538.281 2614.52 538.939 2614.75 539.652 2614.99C539.707 2615.01 539.769 2615.03 539.824 2615.05C560.191 2622 612.26 2636.74 672.178 2630.17C701.387 2619.03 741.883 2594.99 784.634 2564.21C784.636 2564.2 784.639 2564.2 784.641 2564.19C788.582 2556.53 791.47 2548.82 793.536 2541.42Z" fill="#001364"/>
</g>
<g opacity="0.25">
<path d="M698.817 2625.86C745.588 2615.7 771.208 2590.28 784.633 2564.21C741.882 2594.99 701.387 2619.03 672.177 2630.17C680.919 2629.21 689.816 2627.82 698.817 2625.86Z" fill="#001364"/>
</g>
<g opacity="0.25">
<path d="M698.817 2625.86C745.588 2615.7 771.208 2590.28 784.633 2564.21C741.882 2594.99 701.387 2619.03 672.177 2630.17C680.919 2629.21 689.816 2627.82 698.817 2625.86Z" fill="#001364"/>
</g>
<path d="M641.019 2654.63C574.535 2654.63 524.477 2633.71 521.784 2632.56C512.839 2628.75 508.677 2618.41 512.489 2609.46C516.3 2600.53 526.625 2596.37 535.563 2600.16C536.32 2600.48 612.204 2631.9 696.166 2613.65C777.76 2595.91 788.017 2527.42 785.082 2502.52C782.782 2483.01 751.881 2475.61 751.571 2475.54C748.527 2474.89 745.707 2473.45 743.402 2471.36C728.4 2457.8 700.006 2437.73 686.735 2437.73C668.476 2437.73 657.345 2448.09 656.879 2448.53C652.597 2452.59 646.85 2455.17 641.095 2453.84C635.487 2452.55 631.139 2449.48 629.003 2444.21C627.323 2442.07 617.072 2431.43 584.423 2439.81C545.776 2449.72 539.66 2500.52 539.604 2501.04C539.519 2501.79 539.377 2502.61 539.194 2503.36L533.598 2526.08C531.271 2535.51 521.733 2541.27 512.292 2538.96C502.851 2536.64 497.084 2527.1 499.409 2517.66L504.753 2495.95C506.159 2485.37 517.087 2420.72 575.678 2405.7C611.984 2396.41 634.011 2404.18 646.459 2413.03C655.819 2407.76 669.474 2402.52 686.735 2402.52C715.048 2402.52 750.912 2431.23 763.644 2442.26C784.723 2448.08 816.129 2465.13 820.053 2498.41C825.576 2545.28 798.857 2627.36 703.647 2648.06C681.871 2652.79 660.718 2654.63 641.019 2654.63Z" fill="#000072"/>
<path d="M524.318 2634.07C510.597 2634.07 473.454 2632.07 439.279 2612.47C430.844 2607.63 427.928 2596.88 432.767 2588.44C437.601 2580.01 448.355 2577.09 456.798 2581.92C489.442 2600.65 527.286 2598.81 527.672 2598.79C537.32 2598.37 545.678 2605.67 546.237 2615.36C546.796 2625.04 539.435 2633.35 529.748 2633.94C529.384 2633.97 527.465 2634.07 524.318 2634.07Z" fill="#000072"/>
<path d="M666.142 2428.46C667.248 2462.9 657.354 2500.19 631.753 2524.17C645.359 2496.74 643.223 2463.79 631.793 2436.2C626.459 2427.53 629.161 2416.18 637.828 2410.85C651.16 2402.8 666.778 2413.37 666.142 2428.46Z" fill="#000072"/>
<path d="M770.406 2455.82C764.439 2486.25 754.853 2516.75 734.809 2540.63C743.442 2513.24 740.878 2483.84 735.203 2456.57C732.776 2446.9 738.646 2437.09 748.316 2434.66C760.895 2431.19 773.263 2443.2 770.406 2455.82Z" fill="#000072"/>
</svg>
